<?xml version="1.0" encoding="utf-8"?>
<!-- Generator: Adobe Illustrator 27.6.1, SVG Export Plug-In . SVG Version: 6.00 Build 0)  -->
<svg version="1.2" baseProfile="tiny" id="g-One-cloisters-map-Artboard_1-interactions-img" xmlns="http://www.w3.org/2000/svg" xmlns:xlink="http://www.w3.org/1999/xlink"
	 x="0px" y="0px" viewBox="0 0 700 500" overflow="visible" xml:space="preserve">
<g>
	<g id="Layer-1_00000044179649084246896590000009194096715211833484_">
		<g transform="matrix(1.4885 0 0 1.4885 759.9 0)">
			
				
		</g>
	</g>
	<g id="Layer-2_00000156584344714570927880000010964855410261591716_">
		
		
		
		
		
		
		
		
		
		
		
		
		
		
		
		
		
		
		
		
		
		
		
		
		
		
		
		
		
		
		
		
		
		
		
		
		
		
		
		
		
		
		
		
		
		
		
		
		
		
		
		
		
		
		
		
		
		
		
		
		
		
		
		
		
		
		
		
		
		
		
		
		
		
		
		
		
		
		
		
		
		
		
		
		
		
		
		
		
		
		
		
		
		
		
		
		
		
		
		
		
		
		
		
		
		
		
		
		
		
		
		
		
		
		
		
		
		
		
		
		
		
		
		
		
		
		
		
		
		
		
		
		
		
		
		
		
		
		
		
		
		
		
		
		
		
		
		<g>
			
		</g>
		
		
		
		
		
		
		
		
		
		
		
		
		
		
		
		
		
		
		
		
		
		
		
		
		
		
		
		
		
		
		
		
		
		
		
		
		
		
		
		
		
		
		
		
		
		
		
		
		
		
		
		
		
		
		
		
		
		
		
		
		
		
		
		
		
		
		
		
		
		
		
		
		
		
		
		
		
		
		
		
		
		
		
		
		
		
		
		
		
		
		
		
		
	</g>
	<g id="Saint-Guilhem-Cloister_00000172434874375743625100000007323859095220314793_">
		<path d="M332.686,145.102c0.066,0,0.117-0.053,0.117-0.121v-4.443c0-0.068-0.053-0.121-0.117-0.121s-0.117,0.053-0.117,0.121
			v4.441C332.568,145.047,332.62,145.102,332.686,145.102z"/>
		<path d="M333.232,145.102c0.066,0,0.117-0.053,0.117-0.121v-4.443c0-0.068-0.053-0.121-0.117-0.121
			c-0.064,0-0.117,0.053-0.117,0.121v4.441C333.113,145.047,333.166,145.102,333.232,145.102z"/>
		<path d="M325.503,140.417c-0.066,0-0.117,0.053-0.117,0.121v4.441c0,0.068,0.053,0.121,0.117,0.121
			c0.066,0,0.117-0.053,0.117-0.121v-4.441C325.621,140.47,325.569,140.417,325.503,140.417z"/>
		<path d="M324.959,140.417c-0.066,0-0.117,0.053-0.117,0.121v4.441c0,0.068,0.053,0.121,0.117,0.121
			c0.066,0,0.117-0.053,0.117-0.121v-4.441C325.076,140.47,325.023,140.417,324.959,140.417z"/>
		<path d="M334.18,146.114c0-0.004,0-0.007,0-0.009l-0.13-0.494c-0.032-0.123-0.13-0.212-0.249-0.24v-5.231
			c0.121-0.041,0.215-0.141,0.249-0.269l0.119-0.457c0.002-0.004,0-0.009,0-0.012s0.002-0.007,0.002-0.011v-0.544
			c0-0.05-0.039-0.089-0.089-0.089h-0.281v-2.43c0-0.05-0.039-0.089-0.089-0.089h-0.096v-0.423c0-0.057-0.036-0.103-0.084-0.125
			c-0.016-0.025-0.043-0.041-0.073-0.041h-0.868c-0.03-0.025-0.052-0.06-0.052-0.103v-0.24c0-0.057-0.036-0.103-0.084-0.125
			c-0.016-0.025-0.043-0.041-0.073-0.041h-6.578c-0.05,0-0.089,0.039-0.089,0.089v0.069c0,0.002-0.002,0.004-0.002,0.005v0.242
			c0,0.043-0.021,0.078-0.052,0.103h-0.934c-0.05,0-0.089,0.039-0.089,0.089v0.071c0,0.002-0.002,0.004-0.002,0.004v0.423h-0.162
			c-0.05,0-0.089,0.039-0.089,0.089v2.394h-0.295c-0.05,0-0.089,0.039-0.089,0.089v0.58c0,0.005,0.002,0.009,0.002,0.012
			s0,0.007,0,0.009l0.121,0.459c0.036,0.132,0.137,0.233,0.263,0.272v5.215c-0.109,0.004-0.203,0.076-0.231,0.181l-0.149,0.566
			c0,0.004,0,0.005,0,0.009c0,0.005-0.004,0.009-0.004,0.014v0.454c0,0.048,0.039,0.089,0.089,0.089h2.27
			c0.048,0,0.089-0.041,0.089-0.089v-0.454c0-0.005-0.002-0.011-0.004-0.016c0-0.002,0-0.005,0-0.007l-0.149-0.566
			c-0.028-0.105-0.123-0.18-0.231-0.181v-5.213c0.126-0.039,0.228-0.139,0.263-0.272l0.121-0.459c0-0.004,0-0.005,0-0.009
			c0-0.005,0.004-0.009,0.004-0.014v-0.58c0-0.05-0.039-0.089-0.089-0.089h-0.245c0.112-0.722,0.427-1.427,0.834-1.832
			c0.571-0.571,1.329-0.884,2.138-0.884c1.43,0,2.723,1.218,2.974,2.752h-0.235c-0.05,0-0.089,0.039-0.089,0.089v0.544
			c0,0.005,0.002,0.009,0.004,0.014c0,0.004,0,0.005,0,0.009l0.119,0.457c0.034,0.128,0.128,0.228,0.249,0.269v5.233
			c-0.119,0.03-0.217,0.117-0.249,0.24l-0.13,0.494c0,0.002,0,0.004,0,0.005c-0.002,0.005-0.004,0.011-0.004,0.016v0.454
			c0,0.048,0.041,0.089,0.089,0.089h2.27c0.05,0,0.089-0.041,0.089-0.089v-0.454C334.182,146.123,334.18,146.12,334.18,146.114z
			 M333.623,140.161v5.197h-1.329v-5.197H333.623z M324.568,145.357v-5.196h1.325v5.197h-1.325V145.357z M326.131,145.586
			l0.119,0.454h-2.038l0.119-0.454c0.007-0.03,0.034-0.05,0.066-0.05h1.67C326.095,145.534,326.122,145.556,326.131,145.586z
			 M326.163,139.827c-0.025,0.092-0.108,0.157-0.203,0.157h-1.457c-0.096,0-0.18-0.064-0.203-0.157l-0.091-0.347h2.046
			L326.163,139.827z M329.094,135.828c-0.856,0-1.66,0.333-2.263,0.937c-0.445,0.443-0.776,1.181-0.891,1.957h-1.375v-1.026h0.333
			c0.073,0,0.133-0.06,0.133-0.133v-0.32c0-0.073,0.06-0.133,0.133-0.133h0.583c0.073,0,0.133-0.06,0.133-0.133v-0.318
			c0-0.073,0.06-0.133,0.133-0.133h0.277c0.073,0,0.133-0.06,0.133-0.133v-0.327c0-0.073,0.06-0.133,0.133-0.133h0.806
			c0.073,0,0.133-0.06,0.133-0.133v-0.477h3.251v0.475c0,0.073,0.06,0.133,0.133,0.133h0.806c0.073,0,0.133,0.06,0.133,0.133v0.327
			c0,0.073,0.06,0.133,0.133,0.133h0.277c0.073,0,0.133,0.06,0.133,0.133v0.318c0,0.073,0.06,0.133,0.133,0.133h0.583
			c0.073,0,0.133,0.06,0.133,0.133v0.32c0,0.073,0.06,0.133,0.133,0.133h0.265v1.062h-1.371
			C331.997,137.126,330.619,135.828,329.094,135.828z M332.04,139.825l-0.091-0.347h2.019l-0.091,0.347
			c-0.025,0.092-0.108,0.157-0.205,0.157h-1.43C332.147,139.983,332.063,139.917,332.04,139.825z M332.04,145.657
			c0.02-0.071,0.084-0.121,0.158-0.121h1.523c0.075,0,0.139,0.05,0.158,0.121l0.1,0.382h-2.04L332.04,145.657z"/>
	</g>
	<g id="Langon-Chapter-House_00000129181673939992449090000004124486804081462931_">
		<path d="M215.017,109.933c0.066,0,0.117-0.053,0.117-0.121v-4.443c0-0.068-0.053-0.121-0.117-0.121
			c-0.064,0-0.117,0.053-0.117,0.121v4.441C214.9,109.878,214.951,109.933,215.017,109.933z"/>
		<path d="M215.563,109.933c0.066,0,0.117-0.053,0.117-0.121v-4.443c0-0.068-0.053-0.121-0.117-0.121
			c-0.064,0-0.117,0.053-0.117,0.121v4.441C215.444,109.878,215.497,109.933,215.563,109.933z"/>
		<path d="M207.834,105.248c-0.066,0-0.117,0.053-0.117,0.121v4.441c0,0.068,0.053,0.121,0.117,0.121
			c0.066,0,0.117-0.053,0.117-0.121v-4.441C207.952,105.301,207.9,105.248,207.834,105.248z"/>
		<path d="M207.29,105.248c-0.066,0-0.117,0.053-0.117,0.121v4.441c0,0.068,0.053,0.121,0.117,0.121
			c0.066,0,0.117-0.053,0.117-0.121v-4.441C207.408,105.301,207.354,105.248,207.29,105.248z"/>
		<path d="M216.511,110.945c0-0.004,0-0.007,0-0.009l-0.13-0.494c-0.032-0.123-0.13-0.212-0.249-0.24v-5.231
			c0.121-0.041,0.215-0.141,0.249-0.269l0.119-0.457c0.002-0.004,0-0.009,0-0.012s0.002-0.007,0.002-0.011v-0.544
			c0-0.05-0.039-0.089-0.089-0.089h-0.281v-2.43c0-0.05-0.039-0.089-0.089-0.089h-0.096v-0.423c0-0.057-0.036-0.103-0.084-0.125
			c-0.016-0.025-0.043-0.041-0.073-0.041h-0.868c-0.03-0.025-0.052-0.06-0.052-0.103v-0.24c0-0.057-0.036-0.103-0.084-0.125
			c-0.016-0.025-0.043-0.041-0.073-0.041h-6.578c-0.05,0-0.089,0.039-0.089,0.089v0.069c0,0.002-0.002,0.004-0.002,0.005v0.242
			c0,0.043-0.021,0.078-0.052,0.103h-0.934c-0.05,0-0.089,0.039-0.089,0.089v0.071c0,0.002-0.002,0.004-0.002,0.004v0.423h-0.162
			c-0.05,0-0.089,0.039-0.089,0.089v2.394h-0.295c-0.05,0-0.089,0.039-0.089,0.089v0.58c0,0.005,0.002,0.009,0.002,0.012
			s0,0.007,0,0.009l0.121,0.459c0.036,0.132,0.137,0.233,0.263,0.272v5.215c-0.109,0.004-0.203,0.076-0.231,0.181l-0.149,0.566
			c0,0.004,0,0.005,0,0.009c0,0.005-0.004,0.009-0.004,0.014v0.454c0,0.048,0.039,0.089,0.089,0.089h2.27
			c0.048,0,0.089-0.041,0.089-0.089v-0.454c0-0.005-0.002-0.011-0.004-0.016c0-0.002,0-0.005,0-0.007l-0.149-0.566
			c-0.028-0.105-0.123-0.18-0.231-0.181v-5.213c0.126-0.039,0.228-0.139,0.263-0.272l0.121-0.459c0-0.004,0-0.005,0-0.009
			c0-0.005,0.004-0.009,0.004-0.014v-0.58c0-0.05-0.039-0.089-0.089-0.089h-0.245c0.112-0.722,0.427-1.427,0.834-1.832
			c0.571-0.571,1.329-0.884,2.138-0.884c1.43,0,2.723,1.218,2.974,2.752h-0.235c-0.05,0-0.089,0.039-0.089,0.089v0.544
			c0,0.005,0.002,0.009,0.004,0.014c0,0.004,0,0.005,0,0.009l0.119,0.457c0.034,0.128,0.128,0.228,0.249,0.269v5.233
			c-0.119,0.03-0.217,0.117-0.249,0.24l-0.13,0.494c0,0.002,0,0.004,0,0.005c-0.002,0.005-0.004,0.011-0.004,0.016v0.454
			c0,0.048,0.041,0.089,0.089,0.089h2.27c0.05,0,0.089-0.041,0.089-0.089v-0.454C216.513,110.954,216.511,110.951,216.511,110.945z
			 M215.954,104.992v5.197h-1.329v-5.197H215.954z M206.899,110.188v-5.196h1.325v5.197h-1.325V110.188z M208.462,110.417
			l0.119,0.454h-2.038l0.119-0.454c0.007-0.03,0.034-0.05,0.066-0.05h1.67C208.427,110.365,208.453,110.387,208.462,110.417z
			 M208.494,104.657c-0.025,0.092-0.109,0.157-0.203,0.157h-1.457c-0.096,0-0.18-0.064-0.203-0.157l-0.091-0.347h2.046
			L208.494,104.657z M211.426,100.659c-0.856,0-1.66,0.333-2.263,0.937c-0.445,0.443-0.776,1.181-0.891,1.957h-1.375v-1.026h0.333
			c0.073,0,0.133-0.06,0.133-0.133v-0.32c0-0.073,0.06-0.133,0.133-0.133h0.583c0.073,0,0.133-0.06,0.133-0.133v-0.318
			c0-0.073,0.06-0.133,0.133-0.133h0.277c0.073,0,0.133-0.06,0.133-0.133v-0.327c0-0.073,0.06-0.133,0.133-0.133h0.806
			c0.073,0,0.133-0.06,0.133-0.133v-0.477h3.252v0.475c0,0.073,0.06,0.133,0.133,0.133h0.806c0.073,0,0.133,0.06,0.133,0.133v0.327
			c0,0.073,0.06,0.133,0.133,0.133h0.277c0.073,0,0.133,0.06,0.133,0.133v0.318c0,0.073,0.06,0.133,0.133,0.133h0.583
			c0.073,0,0.133,0.06,0.133,0.133v0.32c0,0.073,0.06,0.133,0.133,0.133h0.265v1.062h-1.371
			C214.329,101.957,212.95,100.659,211.426,100.659z M214.371,104.656l-0.091-0.347h2.019l-0.091,0.347
			c-0.025,0.092-0.109,0.157-0.205,0.157h-1.43C214.478,104.814,214.394,104.748,214.371,104.656z M214.371,110.488
			c0.02-0.071,0.084-0.121,0.158-0.121h1.523c0.075,0,0.139,0.05,0.158,0.121l0.1,0.382h-2.04L214.371,110.488z"/>
	</g>
	<g id="Pontaut-Chapter-House_00000064342410444638722820000015704794173402937757_">
		<path d="M206.614,150.866c0.066,0,0.117-0.053,0.117-0.121v-4.443c0-0.068-0.053-0.121-0.117-0.121
			c-0.064,0-0.117,0.053-0.117,0.121v4.441C206.496,150.811,206.548,150.866,206.614,150.866z"/>
		<path d="M207.16,150.866c0.066,0,0.117-0.053,0.117-0.121v-4.443c0-0.068-0.053-0.121-0.117-0.121
			c-0.064,0-0.117,0.053-0.117,0.121v4.441C207.041,150.811,207.094,150.866,207.16,150.866z"/>
		<path d="M199.431,146.181c-0.066,0-0.117,0.053-0.117,0.121v4.441c0,0.068,0.053,0.121,0.117,0.121
			c0.066,0,0.117-0.053,0.117-0.121v-4.441C199.549,146.234,199.497,146.181,199.431,146.181z"/>
		<path d="M198.887,146.181c-0.066,0-0.117,0.053-0.117,0.121v4.441c0,0.068,0.053,0.121,0.117,0.121
			c0.066,0,0.117-0.053,0.117-0.121v-4.441C199.004,146.234,198.951,146.181,198.887,146.181z"/>
		<path d="M208.108,151.878c0-0.004,0-0.007,0-0.009l-0.13-0.494c-0.032-0.123-0.13-0.212-0.249-0.24v-5.231
			c0.121-0.041,0.215-0.141,0.249-0.269l0.119-0.457c0.002-0.004,0-0.009,0-0.012c0-0.004,0.002-0.007,0.002-0.011v-0.544
			c0-0.05-0.039-0.089-0.089-0.089h-0.281v-2.43c0-0.05-0.039-0.089-0.089-0.089h-0.096v-0.423c0-0.057-0.036-0.103-0.084-0.125
			c-0.016-0.025-0.043-0.041-0.073-0.041h-0.868c-0.03-0.025-0.052-0.06-0.052-0.103v-0.24c0-0.057-0.036-0.103-0.084-0.125
			c-0.016-0.025-0.043-0.041-0.073-0.041h-6.578c-0.05,0-0.089,0.039-0.089,0.089v0.069c0,0.002-0.002,0.004-0.002,0.005v0.242
			c0,0.043-0.021,0.078-0.052,0.103h-0.934c-0.05,0-0.089,0.039-0.089,0.089v0.071c0,0.002-0.002,0.004-0.002,0.004v0.423h-0.162
			c-0.05,0-0.089,0.039-0.089,0.089v2.394h-0.295c-0.05,0-0.089,0.039-0.089,0.089v0.58c0,0.005,0.002,0.009,0.002,0.012
			c0,0.004,0,0.007,0,0.009l0.121,0.459c0.036,0.132,0.137,0.233,0.263,0.272v5.215c-0.108,0.004-0.203,0.076-0.231,0.181
			l-0.149,0.566c0,0.004,0,0.005,0,0.009c0,0.005-0.004,0.009-0.004,0.014v0.454c0,0.048,0.039,0.089,0.089,0.089h2.27
			c0.048,0,0.089-0.041,0.089-0.089v-0.454c0-0.005-0.002-0.011-0.004-0.016c0-0.002,0-0.005,0-0.007l-0.149-0.566
			c-0.028-0.105-0.123-0.18-0.231-0.181v-5.213c0.126-0.039,0.228-0.139,0.263-0.272l0.121-0.459c0-0.004,0-0.005,0-0.009
			c0-0.005,0.004-0.009,0.004-0.014v-0.58c0-0.05-0.039-0.089-0.089-0.089h-0.245c0.112-0.722,0.427-1.427,0.834-1.832
			c0.571-0.571,1.329-0.884,2.138-0.884c1.43,0,2.723,1.218,2.974,2.752h-0.235c-0.05,0-0.089,0.039-0.089,0.089v0.544
			c0,0.005,0.002,0.009,0.004,0.014c0,0.004,0,0.005,0,0.009l0.119,0.457c0.034,0.128,0.128,0.228,0.249,0.269v5.233
			c-0.119,0.03-0.217,0.117-0.249,0.24l-0.13,0.494c0,0.002,0,0.004,0,0.005c-0.002,0.005-0.004,0.011-0.004,0.016v0.454
			c0,0.048,0.041,0.089,0.089,0.089h2.27c0.05,0,0.089-0.041,0.089-0.089v-0.454C208.11,151.887,208.108,151.884,208.108,151.878z
			 M207.551,145.925v5.197h-1.329v-5.197H207.551z M198.496,151.121v-5.196h1.325v5.197h-1.325V151.121z M200.059,151.35
			l0.119,0.454h-2.038l0.119-0.454c0.007-0.03,0.034-0.05,0.066-0.05h1.67C200.024,151.298,200.05,151.32,200.059,151.35z
			 M200.091,145.59c-0.025,0.092-0.109,0.157-0.203,0.157h-1.457c-0.096,0-0.18-0.064-0.203-0.157l-0.091-0.347h2.046
			L200.091,145.59z M203.023,141.592c-0.856,0-1.66,0.333-2.263,0.937c-0.445,0.443-0.776,1.181-0.891,1.957h-1.375v-1.026h0.333
			c0.073,0,0.133-0.06,0.133-0.133v-0.32c0-0.073,0.06-0.133,0.133-0.133h0.583c0.073,0,0.133-0.06,0.133-0.133v-0.318
			c0-0.073,0.06-0.133,0.133-0.133h0.277c0.073,0,0.133-0.06,0.133-0.133v-0.327c0-0.073,0.06-0.133,0.133-0.133h0.806
			c0.073,0,0.133-0.06,0.133-0.133v-0.477h3.252v0.475c0,0.073,0.06,0.133,0.133,0.133h0.806c0.073,0,0.133,0.06,0.133,0.133v0.327
			c0,0.073,0.06,0.133,0.133,0.133h0.277c0.073,0,0.133,0.06,0.133,0.133v0.318c0,0.073,0.06,0.133,0.133,0.133h0.583
			c0.073,0,0.133,0.06,0.133,0.133v0.32c0,0.073,0.06,0.133,0.133,0.133h0.265v1.062h-1.371
			C205.925,142.89,204.547,141.592,203.023,141.592z M205.968,145.589l-0.091-0.347h2.019l-0.091,0.347
			c-0.025,0.092-0.109,0.157-0.205,0.157h-1.43C206.075,145.747,205.991,145.681,205.968,145.589z M205.968,151.421
			c0.02-0.071,0.084-0.121,0.158-0.121h1.523c0.075,0,0.139,0.05,0.158,0.121l0.1,0.382h-2.04L205.968,151.421z"/>
	</g>
	<g id="Trie-Cloister_00000129904435156243213270000012448888494858610561_">
		<path d="M234.006,163.052c0.066,0,0.117-0.053,0.117-0.121v-4.443c0-0.068-0.053-0.121-0.117-0.121
			c-0.064,0-0.117,0.053-0.117,0.121v4.441C233.889,162.997,233.941,163.052,234.006,163.052z"/>
		<path d="M234.552,163.052c0.066,0,0.117-0.053,0.117-0.121v-4.443c0-0.068-0.053-0.121-0.117-0.121
			c-0.064,0-0.117,0.053-0.117,0.121v4.441C234.433,162.997,234.487,163.052,234.552,163.052z"/>
		<path d="M226.824,158.367c-0.066,0-0.117,0.053-0.117,0.121v4.441c0,0.068,0.053,0.121,0.117,0.121
			c0.066,0,0.117-0.053,0.117-0.121v-4.441C226.941,158.42,226.89,158.367,226.824,158.367z"/>
		<path d="M226.28,158.367c-0.066,0-0.117,0.053-0.117,0.121v4.441c0,0.068,0.053,0.121,0.117,0.121
			c0.066,0,0.117-0.053,0.117-0.121v-4.441C226.397,158.42,226.344,158.367,226.28,158.367z"/>
		<path d="M235.5,164.064c0-0.004,0-0.007,0-0.009l-0.13-0.494c-0.032-0.123-0.13-0.212-0.249-0.24v-5.231
			c0.121-0.041,0.215-0.141,0.249-0.269l0.119-0.457c0.002-0.004,0-0.009,0-0.012s0.002-0.007,0.002-0.011v-0.544
			c0-0.05-0.039-0.089-0.089-0.089h-0.281v-2.43c0-0.05-0.039-0.089-0.089-0.089h-0.096v-0.423c0-0.057-0.036-0.103-0.084-0.125
			c-0.016-0.025-0.043-0.041-0.073-0.041h-0.868c-0.03-0.025-0.052-0.06-0.052-0.103v-0.24c0-0.057-0.036-0.103-0.084-0.125
			c-0.016-0.025-0.043-0.041-0.073-0.041h-6.578c-0.05,0-0.089,0.039-0.089,0.089v0.069c0,0.002-0.002,0.004-0.002,0.005v0.242
			c0,0.043-0.021,0.078-0.052,0.103h-0.934c-0.05,0-0.089,0.039-0.089,0.089v0.071c0,0.002-0.002,0.004-0.002,0.004v0.423h-0.162
			c-0.05,0-0.089,0.039-0.089,0.089v2.394h-0.295c-0.05,0-0.089,0.039-0.089,0.089v0.58c0,0.005,0.002,0.009,0.002,0.012
			s0,0.007,0,0.009l0.121,0.459c0.036,0.132,0.137,0.233,0.263,0.272v5.215c-0.109,0.004-0.203,0.076-0.231,0.181l-0.149,0.566
			c0,0.004,0,0.005,0,0.009c0,0.005-0.004,0.009-0.004,0.014v0.454c0,0.048,0.039,0.089,0.089,0.089h2.27
			c0.048,0,0.089-0.041,0.089-0.089v-0.454c0-0.005-0.002-0.011-0.004-0.016c0-0.002,0-0.005,0-0.007l-0.149-0.566
			c-0.028-0.105-0.123-0.18-0.231-0.181v-5.213c0.126-0.039,0.228-0.139,0.263-0.272l0.121-0.459c0-0.004,0-0.005,0-0.009
			c0-0.005,0.004-0.009,0.004-0.014v-0.58c0-0.05-0.039-0.089-0.089-0.089h-0.245c0.112-0.722,0.427-1.427,0.834-1.832
			c0.571-0.571,1.329-0.884,2.138-0.884c1.43,0,2.723,1.218,2.974,2.752h-0.235c-0.05,0-0.089,0.039-0.089,0.089v0.544
			c0,0.005,0.002,0.009,0.004,0.014c0,0.004,0,0.005,0,0.009l0.119,0.457c0.034,0.128,0.128,0.228,0.249,0.269v5.233
			c-0.119,0.03-0.217,0.117-0.249,0.24l-0.13,0.494c0,0.002,0,0.004,0,0.005c-0.002,0.005-0.004,0.011-0.004,0.016v0.454
			c0,0.048,0.041,0.089,0.089,0.089h2.27c0.05,0,0.089-0.041,0.089-0.089v-0.454C235.502,164.073,235.5,164.069,235.5,164.064z
			 M234.944,158.111v5.197h-1.329v-5.197H234.944z M225.888,163.306v-5.196h1.325v5.197h-1.325V163.306z M227.452,163.536
			l0.119,0.454h-2.038l0.119-0.454c0.007-0.03,0.034-0.05,0.066-0.05h1.67C227.416,163.484,227.443,163.506,227.452,163.536z
			 M227.484,157.776c-0.025,0.092-0.109,0.157-0.203,0.157h-1.457c-0.096,0-0.18-0.064-0.203-0.157l-0.091-0.347h2.046
			L227.484,157.776z M230.415,153.778c-0.856,0-1.66,0.333-2.263,0.937c-0.445,0.443-0.776,1.181-0.891,1.957h-1.375v-1.026h0.333
			c0.073,0,0.133-0.06,0.133-0.133v-0.32c0-0.073,0.06-0.133,0.133-0.133h0.583c0.073,0,0.133-0.06,0.133-0.133v-0.318
			c0-0.073,0.06-0.133,0.133-0.133h0.277c0.073,0,0.133-0.06,0.133-0.133v-0.327c0-0.073,0.06-0.133,0.133-0.133h0.806
			c0.073,0,0.133-0.06,0.133-0.133v-0.477h3.252v0.475c0,0.073,0.06,0.133,0.133,0.133h0.806c0.073,0,0.133,0.06,0.133,0.133v0.327
			c0,0.073,0.06,0.133,0.133,0.133h0.277c0.073,0,0.133,0.06,0.133,0.133v0.318c0,0.073,0.06,0.133,0.133,0.133h0.583
			c0.073,0,0.133,0.06,0.133,0.133v0.32c0,0.073,0.06,0.133,0.133,0.133h0.265v1.062h-1.371
			C233.318,155.076,231.939,153.778,230.415,153.778z M233.361,157.774l-0.091-0.347h2.019l-0.091,0.347
			c-0.025,0.092-0.109,0.157-0.205,0.157h-1.43C233.467,157.933,233.384,157.867,233.361,157.774z M233.361,163.607
			c0.02-0.071,0.084-0.121,0.158-0.121h1.523c0.075,0,0.139,0.05,0.158,0.121l0.1,0.382h-2.04L233.361,163.607z"/>
	</g>
	<g id="Cloister-Bonnefont_00000063594033764347188730000010282465503236882335_">
		<path d="M249.58,170.106c0.066,0,0.117-0.053,0.117-0.121v-4.443c0-0.068-0.053-0.121-0.117-0.121
			c-0.064,0-0.117,0.053-0.117,0.121v4.441C249.463,170.051,249.514,170.106,249.58,170.106z"/>
		<path d="M250.126,170.106c0.066,0,0.117-0.053,0.117-0.121v-4.443c0-0.068-0.053-0.121-0.117-0.121s-0.117,0.053-0.117,0.121
			v4.441C250.007,170.051,250.06,170.106,250.126,170.106z"/>
		<path d="M242.398,165.421c-0.066,0-0.117,0.053-0.117,0.121v4.441c0,0.068,0.053,0.121,0.117,0.121
			c0.066,0,0.117-0.053,0.117-0.121v-4.441C242.515,165.474,242.463,165.421,242.398,165.421z"/>
		<path d="M241.853,165.421c-0.066,0-0.117,0.053-0.117,0.121v4.441c0,0.068,0.053,0.121,0.117,0.121
			c0.066,0,0.117-0.053,0.117-0.121v-4.441C241.971,165.474,241.917,165.421,241.853,165.421z"/>
		<path d="M251.074,171.118c0-0.004,0-0.007,0-0.009l-0.13-0.494c-0.032-0.123-0.13-0.212-0.249-0.24v-5.231
			c0.121-0.041,0.215-0.141,0.249-0.269l0.119-0.457c0.002-0.004,0-0.009,0-0.012s0.002-0.007,0.002-0.011v-0.544
			c0-0.05-0.039-0.089-0.089-0.089h-0.281v-2.43c0-0.05-0.039-0.089-0.089-0.089h-0.096v-0.423c0-0.057-0.036-0.103-0.084-0.125
			c-0.016-0.025-0.043-0.041-0.073-0.041h-0.868c-0.03-0.025-0.052-0.06-0.052-0.103v-0.24c0-0.057-0.036-0.103-0.084-0.125
			c-0.016-0.025-0.043-0.041-0.073-0.041H242.7c-0.05,0-0.089,0.039-0.089,0.089v0.069c0,0.002-0.002,0.004-0.002,0.005v0.242
			c0,0.043-0.021,0.078-0.052,0.103h-0.934c-0.05,0-0.089,0.039-0.089,0.089v0.071c0,0.002-0.002,0.004-0.002,0.004v0.423h-0.162
			c-0.05,0-0.089,0.039-0.089,0.089v2.394h-0.295c-0.05,0-0.089,0.039-0.089,0.089v0.58c0,0.005,0.002,0.009,0.002,0.012
			s0,0.007,0,0.009l0.121,0.459c0.036,0.132,0.137,0.233,0.263,0.272v5.215c-0.109,0.004-0.203,0.076-0.231,0.181l-0.149,0.566
			c0,0.004,0,0.005,0,0.009c0,0.005-0.004,0.009-0.004,0.014v0.454c0,0.048,0.039,0.089,0.089,0.089h2.27
			c0.048,0,0.089-0.041,0.089-0.089v-0.454c0-0.005-0.002-0.011-0.004-0.016c0-0.002,0-0.005,0-0.007l-0.149-0.566
			c-0.028-0.105-0.123-0.18-0.231-0.181v-5.213c0.126-0.039,0.228-0.139,0.263-0.272l0.121-0.459c0-0.004,0-0.005,0-0.009
			c0-0.005,0.004-0.009,0.004-0.014v-0.58c0-0.05-0.039-0.089-0.089-0.089h-0.245c0.112-0.722,0.427-1.427,0.834-1.832
			c0.571-0.571,1.329-0.884,2.138-0.884c1.43,0,2.723,1.218,2.974,2.752h-0.235c-0.05,0-0.089,0.039-0.089,0.089v0.544
			c0,0.005,0.002,0.009,0.004,0.014c0,0.004,0,0.005,0,0.009l0.119,0.457c0.034,0.128,0.128,0.228,0.249,0.269v5.233
			c-0.119,0.03-0.217,0.117-0.249,0.24l-0.13,0.494c0,0.002,0,0.004,0,0.005c-0.002,0.005-0.004,0.011-0.004,0.016v0.454
			c0,0.048,0.041,0.089,0.089,0.089h2.27c0.05,0,0.089-0.041,0.089-0.089v-0.454C251.076,171.127,251.074,171.124,251.074,171.118z
			 M250.518,165.165v5.197h-1.329v-5.197H250.518z M241.462,170.361v-5.196h1.325v5.197h-1.325V170.361z M243.026,170.59
			l0.119,0.454h-2.038l0.119-0.454c0.007-0.03,0.034-0.05,0.066-0.05h1.67C242.99,170.538,243.017,170.56,243.026,170.59z
			 M243.058,164.83c-0.025,0.092-0.109,0.157-0.203,0.157h-1.457c-0.096,0-0.18-0.064-0.203-0.157l-0.091-0.347h2.046
			L243.058,164.83z M245.989,160.832c-0.856,0-1.66,0.333-2.263,0.937c-0.445,0.443-0.776,1.181-0.891,1.957h-1.375V162.7h0.333
			c0.073,0,0.133-0.06,0.133-0.133v-0.32c0-0.073,0.06-0.133,0.133-0.133h0.583c0.073,0,0.133-0.06,0.133-0.133v-0.318
			c0-0.073,0.06-0.133,0.133-0.133h0.277c0.073,0,0.133-0.06,0.133-0.133v-0.327c0-0.073,0.06-0.133,0.133-0.133h0.806
			c0.073,0,0.133-0.06,0.133-0.133v-0.477h3.252v0.475c0,0.073,0.06,0.133,0.133,0.133h0.806c0.073,0,0.133,0.06,0.133,0.133v0.327
			c0,0.073,0.06,0.133,0.133,0.133h0.277c0.073,0,0.133,0.06,0.133,0.133v0.318c0,0.073,0.06,0.133,0.133,0.133h0.583
			c0.073,0,0.133,0.06,0.133,0.133v0.32c0,0.073,0.06,0.133,0.133,0.133h0.265v1.062h-1.371
			C248.892,162.13,247.513,160.832,245.989,160.832z M248.935,164.829l-0.091-0.347h2.019l-0.091,0.347
			c-0.025,0.092-0.108,0.157-0.205,0.157h-1.43C249.041,164.987,248.958,164.921,248.935,164.829z M248.935,170.661
			c0.02-0.071,0.084-0.121,0.158-0.121h1.523c0.075,0,0.139,0.05,0.158,0.121l0.1,0.382h-2.04L248.935,170.661z"/>
	</g>
	<g id="Cloister-Tarbes_00000038413125319698138620000001712232735429748121_">
		<path d="M223.582,165.792c0.066,0,0.117-0.053,0.117-0.121v-4.443c0-0.068-0.053-0.121-0.117-0.121
			c-0.064,0-0.117,0.053-0.117,0.121v4.441C223.464,165.737,223.516,165.792,223.582,165.792z"/>
		<path d="M224.128,165.792c0.066,0,0.117-0.053,0.117-0.121v-4.443c0-0.068-0.053-0.121-0.117-0.121
			c-0.064,0-0.117,0.053-0.117,0.121v4.441C224.008,165.737,224.062,165.792,224.128,165.792z"/>
		<path d="M216.399,161.107c-0.066,0-0.117,0.053-0.117,0.121v4.441c0,0.068,0.053,0.121,0.117,0.121
			c0.066,0,0.117-0.053,0.117-0.121v-4.441C216.516,161.16,216.465,161.107,216.399,161.107z"/>
		<path d="M215.855,161.107c-0.066,0-0.117,0.053-0.117,0.121v4.441c0,0.068,0.053,0.121,0.117,0.121
			c0.066,0,0.117-0.053,0.117-0.121v-4.441C215.972,161.16,215.919,161.107,215.855,161.107z"/>
		<path d="M225.076,166.804c0-0.004,0-0.007,0-0.009l-0.13-0.494c-0.032-0.123-0.13-0.212-0.249-0.24v-5.231
			c0.121-0.041,0.215-0.141,0.249-0.269l0.119-0.457c0.002-0.004,0-0.009,0-0.012s0.002-0.007,0.002-0.011v-0.544
			c0-0.05-0.039-0.089-0.089-0.089h-0.281v-2.43c0-0.05-0.039-0.089-0.089-0.089h-0.096v-0.423c0-0.057-0.036-0.103-0.084-0.125
			c-0.016-0.025-0.043-0.041-0.073-0.041h-0.868c-0.03-0.025-0.052-0.06-0.052-0.103v-0.24c0-0.057-0.036-0.103-0.084-0.125
			c-0.016-0.025-0.043-0.041-0.073-0.041h-6.578c-0.05,0-0.089,0.039-0.089,0.089v0.069c0,0.002-0.002,0.004-0.002,0.005v0.242
			c0,0.043-0.021,0.078-0.052,0.103h-0.934c-0.05,0-0.089,0.039-0.089,0.089v0.071c0,0.002-0.002,0.004-0.002,0.004v0.423h-0.162
			c-0.05,0-0.089,0.039-0.089,0.089v2.394h-0.295c-0.05,0-0.089,0.039-0.089,0.089v0.58c0,0.005,0.002,0.009,0.002,0.012
			s0,0.007,0,0.009l0.121,0.459c0.036,0.132,0.137,0.233,0.263,0.272v5.215c-0.109,0.004-0.203,0.076-0.231,0.181l-0.149,0.566
			c0,0.004,0,0.005,0,0.009c0,0.005-0.004,0.009-0.004,0.014v0.454c0,0.048,0.039,0.089,0.089,0.089h2.27
			c0.048,0,0.089-0.041,0.089-0.089v-0.454c0-0.005-0.002-0.011-0.004-0.016c0-0.002,0-0.005,0-0.007l-0.149-0.566
			c-0.028-0.105-0.123-0.18-0.231-0.181v-5.213c0.126-0.039,0.228-0.139,0.263-0.272l0.121-0.459c0-0.004,0-0.005,0-0.009
			c0-0.005,0.004-0.009,0.004-0.014v-0.58c0-0.05-0.039-0.089-0.089-0.089h-0.245c0.112-0.722,0.427-1.427,0.834-1.832
			c0.571-0.571,1.329-0.884,2.138-0.884c1.43,0,2.723,1.218,2.974,2.752h-0.235c-0.05,0-0.089,0.039-0.089,0.089v0.544
			c0,0.005,0.002,0.009,0.004,0.014c0,0.004,0,0.005,0,0.009l0.119,0.457c0.034,0.128,0.128,0.228,0.249,0.269v5.233
			c-0.119,0.03-0.217,0.117-0.249,0.24l-0.13,0.494c0,0.002,0,0.004,0,0.005c-0.002,0.005-0.004,0.011-0.004,0.016v0.454
			c0,0.048,0.041,0.089,0.089,0.089h2.27c0.05,0,0.089-0.041,0.089-0.089v-0.454C225.077,166.813,225.076,166.809,225.076,166.804z
			 M224.519,160.851v5.197h-1.329v-5.197H224.519z M215.463,166.046v-5.196h1.325v5.197h-1.325V166.046z M217.027,166.276
			l0.119,0.454h-2.038l0.119-0.454c0.007-0.03,0.034-0.05,0.066-0.05h1.67C216.991,166.224,217.018,166.246,217.027,166.276z
			 M217.059,160.516c-0.025,0.092-0.109,0.157-0.203,0.157h-1.457c-0.096,0-0.18-0.064-0.203-0.157l-0.091-0.347h2.046
			L217.059,160.516z M219.99,156.518c-0.856,0-1.66,0.333-2.263,0.937c-0.445,0.443-0.776,1.181-0.891,1.957h-1.375v-1.026h0.333
			c0.073,0,0.133-0.06,0.133-0.133v-0.32c0-0.073,0.06-0.133,0.133-0.133h0.583c0.073,0,0.133-0.06,0.133-0.133v-0.318
			c0-0.073,0.06-0.133,0.133-0.133h0.277c0.073,0,0.133-0.06,0.133-0.133v-0.327c0-0.073,0.06-0.133,0.133-0.133h0.806
			c0.073,0,0.133-0.06,0.133-0.133v-0.477h3.252v0.475c0,0.073,0.06,0.133,0.133,0.133h0.806c0.073,0,0.133,0.06,0.133,0.133v0.327
			c0,0.073,0.06,0.133,0.133,0.133h0.277c0.073,0,0.133,0.06,0.133,0.133v0.318c0,0.073,0.06,0.133,0.133,0.133h0.583
			c0.073,0,0.133,0.06,0.133,0.133v0.32c0,0.073,0.06,0.133,0.133,0.133h0.265v1.062h-1.371
			C222.893,157.816,221.515,156.518,219.99,156.518z M222.936,160.515l-0.091-0.347h2.019l-0.091,0.347
			c-0.025,0.092-0.109,0.157-0.205,0.157h-1.43C223.043,160.673,222.959,160.607,222.936,160.515z M222.936,166.347
			c0.02-0.071,0.084-0.121,0.158-0.121h1.523c0.075,0,0.139,0.05,0.158,0.121l0.1,0.382h-2.04L222.936,166.347z"/>
	</g>
	<g id="Cuxa-Cloister_00000165918239989572812830000018077528776330118073_">
		<path d="M298.297,193.581c0.066,0,0.117-0.053,0.117-0.121v-4.443c0-0.068-0.053-0.121-0.117-0.121s-0.117,0.053-0.117,0.121
			v4.441C298.179,193.526,298.231,193.581,298.297,193.581z"/>
		<path d="M298.843,193.581c0.066,0,0.117-0.053,0.117-0.121v-4.443c0-0.068-0.053-0.121-0.117-0.121
			c-0.064,0-0.117,0.053-0.117,0.121v4.441C298.724,193.526,298.777,193.581,298.843,193.581z"/>
		<path d="M291.114,188.896c-0.066,0-0.117,0.053-0.117,0.121v4.441c0,0.068,0.053,0.121,0.117,0.121
			c0.066,0,0.117-0.053,0.117-0.121v-4.441C291.232,188.949,291.18,188.896,291.114,188.896z"/>
		<path d="M290.57,188.896c-0.066,0-0.117,0.053-0.117,0.121v4.441c0,0.068,0.053,0.121,0.117,0.121
			c0.066,0,0.117-0.053,0.117-0.121v-4.441C290.687,188.949,290.634,188.896,290.57,188.896z"/>
		<path d="M299.791,194.593c0-0.004,0-0.007,0-0.009l-0.13-0.494c-0.032-0.123-0.13-0.212-0.249-0.24v-5.231
			c0.121-0.041,0.215-0.141,0.249-0.269l0.119-0.457c0.002-0.004,0-0.009,0-0.012s0.002-0.007,0.002-0.011v-0.544
			c0-0.05-0.039-0.089-0.089-0.089h-0.281v-2.43c0-0.05-0.039-0.089-0.089-0.089h-0.096v-0.423c0-0.057-0.036-0.103-0.084-0.125
			c-0.016-0.025-0.043-0.041-0.073-0.041h-0.868c-0.03-0.025-0.052-0.06-0.052-0.103v-0.24c0-0.057-0.036-0.103-0.084-0.125
			c-0.016-0.025-0.043-0.041-0.073-0.041h-6.578c-0.05,0-0.089,0.039-0.089,0.089v0.069c0,0.002-0.002,0.004-0.002,0.005v0.242
			c0,0.043-0.021,0.078-0.052,0.103h-0.934c-0.05,0-0.089,0.039-0.089,0.089v0.071c0,0.002-0.002,0.004-0.002,0.004v0.423h-0.162
			c-0.05,0-0.089,0.039-0.089,0.089v2.394h-0.295c-0.05,0-0.089,0.039-0.089,0.089v0.58c0,0.005,0.002,0.009,0.002,0.012
			s0,0.007,0,0.009l0.121,0.459c0.036,0.132,0.137,0.233,0.263,0.272v5.215c-0.108,0.004-0.203,0.076-0.231,0.181l-0.149,0.566
			c0,0.004,0,0.005,0,0.009c0,0.005-0.004,0.009-0.004,0.014v0.454c0,0.048,0.039,0.089,0.089,0.089h2.27
			c0.048,0,0.089-0.041,0.089-0.089v-0.454c0-0.005-0.002-0.011-0.004-0.016c0-0.002,0-0.005,0-0.007l-0.149-0.566
			c-0.028-0.105-0.123-0.18-0.231-0.181v-5.213c0.126-0.039,0.228-0.139,0.263-0.272l0.121-0.459c0-0.004,0-0.005,0-0.009
			c0-0.005,0.004-0.009,0.004-0.014v-0.58c0-0.05-0.039-0.089-0.089-0.089h-0.245c0.112-0.722,0.427-1.427,0.834-1.832
			c0.571-0.571,1.329-0.884,2.138-0.884c1.43,0,2.723,1.218,2.974,2.752h-0.235c-0.05,0-0.089,0.039-0.089,0.089v0.544
			c0,0.005,0.002,0.009,0.004,0.014c0,0.004,0,0.005,0,0.009l0.119,0.457c0.034,0.128,0.128,0.228,0.249,0.269v5.233
			c-0.119,0.03-0.217,0.117-0.249,0.24l-0.13,0.494c0,0.002,0,0.004,0,0.005c-0.002,0.005-0.004,0.011-0.004,0.016v0.454
			c0,0.048,0.041,0.089,0.089,0.089h2.27c0.05,0,0.089-0.041,0.089-0.089v-0.454C299.793,194.602,299.791,194.599,299.791,194.593z
			 M299.234,188.64v5.197h-1.329v-5.197H299.234z M290.179,193.836v-5.196h1.325v5.197h-1.325V193.836z M291.742,194.065
			l0.119,0.454h-2.038l0.119-0.454c0.007-0.03,0.034-0.05,0.066-0.05h1.67C291.707,194.013,291.733,194.035,291.742,194.065z
			 M291.774,188.305c-0.025,0.092-0.108,0.157-0.203,0.157h-1.457c-0.096,0-0.18-0.064-0.203-0.157l-0.091-0.347h2.046
			L291.774,188.305z M294.706,184.307c-0.856,0-1.66,0.333-2.263,0.937c-0.445,0.443-0.776,1.181-0.891,1.957h-1.375v-1.026h0.333
			c0.073,0,0.133-0.06,0.133-0.133v-0.32c0-0.073,0.06-0.133,0.133-0.133h0.583c0.073,0,0.133-0.06,0.133-0.133v-0.318
			c0-0.073,0.06-0.133,0.133-0.133h0.277c0.073,0,0.133-0.06,0.133-0.133v-0.327c0-0.073,0.06-0.133,0.133-0.133h0.806
			c0.073,0,0.133-0.06,0.133-0.133v-0.477h3.252v0.475c0,0.073,0.06,0.133,0.133,0.133h0.806c0.073,0,0.133,0.06,0.133,0.133v0.327
			c0,0.073,0.06,0.133,0.133,0.133h0.277c0.073,0,0.133,0.06,0.133,0.133v0.318c0,0.073,0.06,0.133,0.133,0.133h0.583
			c0.073,0,0.133,0.06,0.133,0.133v0.32c0,0.073,0.06,0.133,0.133,0.133h0.265v1.062h-1.371
			C297.608,185.605,296.23,184.307,294.706,184.307z M297.651,188.304l-0.091-0.347h2.019l-0.091,0.347
			c-0.025,0.092-0.108,0.157-0.205,0.157h-1.43C297.758,188.462,297.674,188.396,297.651,188.304z M297.651,194.136
			c0.02-0.071,0.084-0.121,0.158-0.121h1.523c0.075,0,0.139,0.05,0.158,0.121l0.1,0.382h-2.04L297.651,194.136z"/>
	</g>
	<g id="Layer-2_00000104666708083491554310000009324894305713268411_">
		<path fill="none" stroke="#402217" stroke-width="2.2061" stroke-linecap="round" stroke-miterlimit="2.0766" d="M494.482,88.304
			c0.767-0.621,1.315-2.922,1.806-3.851c0.824-1.559,1.711-3.1,2.664-4.59c0.332-0.521,0.415-1.205,0.754-1.734
			c0.731-1.143,1.283-2.429,1.889-3.635c1.404-2.803,3.094-5.463,4.506-8.282c0.481-0.963,0.798-1.992,1.247-2.977
			c1.412-3.102,2.867-6.193,4.691-9.04c0.297-0.462,0.434-1.043,0.682-1.535c0.551-1.102,1.351-2.152,2.09-3.096
			c0.707-0.903,0.964-2.233,1.434-3.269c0.601-1.317,1.506-2.607,2.27-3.803"/>
		<path fill="none" stroke="#402217" stroke-width="2.2061" stroke-linecap="round" stroke-miterlimit="2.0766" d="M518.401,41.907
			c0.025,0.073,0.155,0.228,0.078,0.218c-0.199-0.024-1.444-1.903-1.567-2.175c-0.14-0.313-0.123-0.672-0.299-0.977
			c-0.673-1.167-1.455-2.536-1.516-3.894c-0.11-2.468-0.512-5.311,0.208-7.763c0.343-1.174,0.803-2.496,1.374-3.597
			c0.349-0.671,0.896-1.15,1.262-1.782c0.551-0.949,1.478-2.128,2.421-2.739c2.334-1.51,4.919-2.653,7.691-3.094
			c1.042-0.166,2.101-0.094,3.153-0.141c1.076-0.048,2.421,0.025,3.458,0.366c1.429,0.47,2.393,1.122,3.575,2
			c0.396,0.295,0.9,0.374,1.271,0.729c1.021,0.977,1.921,1.942,2.708,3.098c0.311,0.457,0.758,0.809,1.048,1.277
			c0.407,0.658,0.709,1.363,1.114,2.016c0.563,0.909,1.192,1.683,1.279,2.82c0.036,0.455,0.508,1.169,0.227,1.595"/>
		<path fill="none" stroke="#402217" stroke-width="2.2061" stroke-linecap="round" stroke-miterlimit="2.0766" d="M546.234,30.054
			c1.203,0.251,2.414,0.026,3.596-0.02c0.919-0.036,1.914,0.116,2.821,0.01c0.957-0.112,1.988-0.323,2.946-0.284
			c2.251,0.091,4.504,0.492,6.758,0.51c3.213,0.026,6.406-0.067,9.618,0.015c1.889,0.048,3.782,0.292,5.665,0.218
			c4.426-0.175,9.042-0.374,13.46,0.046c3.863,0.367,7.696-1.091,11.482-0.302"/>
		<path fill="none" stroke="#402217" stroke-width="2.2061" stroke-linecap="round" stroke-miterlimit="2.0766" d="M601.907,30.11
			c-0.064-0.503,0.597-1.592,0.911-2.068c0.521-0.791,0.836-1.682,1.518-2.405c1.133-1.201,2.414-2.141,3.776-3.081
			c2.257-1.559,4.263-2.001,6.94-2.153c1.684-0.096,3.384-0.053,4.938,0.755c0.587,0.306,1.048,0.883,1.567,1.286
			c0.271,0.21,0.659,0.354,0.885,0.617c0.163,0.189,0.203,0.399,0.411,0.573c1.101,0.921,1.463,1.772,2.31,2.832
			c2.613,3.269,2.385,7.493,0.68,11.135c-0.451,0.966-0.593,1.941-1.376,2.699"/>
		<path fill="none" stroke="#402217" stroke-width="2.2061" stroke-linecap="round" stroke-miterlimit="2.0766" d="M624.262,40.159
			c-0.097,1.214,1.995,1.561,2.416,2.602c0.258,0.644,0.396,1.394,0.957,1.89c0.513,0.452,1.18,0.951,1.584,1.507
			c1.448,1.993,2.867,4.034,4.597,5.754c0.724,0.718,1.201,1.648,1.834,2.447c0.752,0.95,1.573,1.728,2.27,2.726
			c0.582,0.832,1.434,1.505,2.09,2.279c0.326,0.383,0.476,0.874,0.879,1.207c0.544,0.453,1.169,0.905,1.584,1.507
			c0.424,0.618,0.709,1.34,1.114,1.957c0.515,0.782,1.313,1.404,1.855,2.178c0.394,0.562,0.597,1.257,0.991,1.811
			c1.196,1.686,2.696,3.203,3.969,4.838c0.368,0.472,0.544,1.097,0.9,1.588c0.983,1.349,2.128,2.65,3.295,3.809
			c0.284,0.282,0.866,1.341,1.268,1.374c0.222,0.018,0.735-0.697,0.906-0.82c0.451-0.328,3.401-1.663,3.869-1.692"/>
		<path fill="none" stroke="#402217" stroke-width="2.2061" stroke-linecap="round" stroke-miterlimit="2.0766" d="M669.843,93.504
			c0.068,0.084-0.22-0.413-0.305-0.566c-0.205-0.37-0.43-0.716-0.625-1.097c-0.172-0.332-0.462-0.577-0.618-0.922
			c-0.148-0.321-0.208-0.708-0.411-1.001c-0.377-0.54-0.733-0.979-0.911-1.612c-0.138-0.493-0.523-0.903-0.777-1.337
			c-0.161-0.278-0.216-0.638-0.354-0.933c-0.426-0.903-1.021-1.725-1.565-2.55c-0.614-0.933-0.911-2.045-1.391-3.031
			c-0.214-0.436-0.568-0.784-0.788-1.213c-0.392-0.763-0.616-1.611-1.167-2.286"/>
		<path fill="none" stroke="#402217" stroke-width="2.2061" stroke-linecap="round" stroke-miterlimit="2.0766" d="M665.605,95.859
			c0.299-0.244,0.498-0.558,0.847-0.738c0.337-0.173,0.75-0.179,1.108-0.363c0.326-0.167,0.656-0.517,0.974-0.638
			c0.233-0.089,1.222-0.235,1.315-0.442"/>
		<path fill="none" stroke="#402217" stroke-width="2.2061" stroke-linecap="round" stroke-miterlimit="2.0766" d="M672.113,113.263
			c0.008,0.2-0.246-0.486-0.29-0.602c-0.163-0.43-0.229-0.902-0.44-1.315c-0.57-1.11-1.173-2.823-1.417-4.031
			c-0.316-1.575-1.006-3.047-1.474-4.572c-0.102-0.335-0.091-0.71-0.218-1.044c-0.152-0.397-0.407-0.757-0.557-1.153
			c-0.123-0.321-0.081-0.674-0.201-0.992c-0.186-0.489-0.553-0.909-0.743-1.408c-0.172-0.449-0.159-0.998-0.394-1.423
			c-0.169-0.306-0.379-0.675-0.394-1.037"/>
		<path fill="none" stroke="#402217" stroke-width="2.2061" stroke-linecap="round" stroke-miterlimit="2.0766" d="M668.527,115.117
			c0.847-0.56,2.393-1.036,3.388-1.303"/>
		<path fill="none" stroke="#402217" stroke-width="2.2061" stroke-linecap="round" stroke-miterlimit="2.0766" d="M668.367,115.062
			c-0.428-0.646-0.246-1.482-0.58-2.156c-0.201-0.407-0.481-0.875-0.597-1.315"/>
		<path fill="none" stroke="#402217" stroke-width="2.2061" stroke-linecap="round" stroke-miterlimit="2.0766" d="M652.162,108.937
			c0.678-0.182,1.421,0.137,2.099,0.125c1.243-0.022,2.529,0.26,3.765,0.465c0.419,0.07,0.807,0.303,1.228,0.359
			c2.592,0.345,5.231,0.699,7.753,1.213"/>
		<path fill="none" stroke="#402217" stroke-width="2.2061" stroke-linecap="round" stroke-miterlimit="2.0766" d="M647.611,134.852
			c-0.275-1.026-0.468-2.582-0.961-3.579c-0.438-0.886-0.697-1.882-1.05-2.816c-0.955-2.517-2.071-4.961-2.772-7.569"/>
		<path fill="none" stroke="#402217" stroke-width="2.2061" stroke-linecap="round" stroke-miterlimit="2.0766" d="M647.677,135.277
			c0.021,0.082,2.533,0.062,2.941,0.145"/>
		<path fill="none" stroke="#402217" stroke-width="2.2061" stroke-linecap="round" stroke-miterlimit="2.0766" d="M659.693,137.165
			c0.008,0.009,2.874,0.31,3.024,0.27"/>
		<path fill="none" stroke="#402217" stroke-width="2.2061" stroke-linecap="round" stroke-miterlimit="2.0766" d="M672.449,125.869
			c-0.227-0.131-0.944-2.419-1.088-2.954"/>
		<path fill="none" stroke="#402217" stroke-width="2.2061" stroke-linecap="round" stroke-miterlimit="2.0766" d="M671.312,122.731
			c0.066,0.244,1.427-0.625,1.715-0.756c0.572-0.261,2.014-0.396,2.406-0.745"/>
		<path fill="none" stroke="#402217" stroke-width="2.2061" stroke-linecap="round" stroke-miterlimit="2.0766" d="M663.117,137.82
			c0.042,0.161,0.722-0.846,0.858-1.017c0.339-0.434,0.839-0.748,1.154-1.195c0.267-0.378,0.333-0.86,0.659-1.21
			c1.12-1.203,2.207-2.482,3.033-3.913c0.29-0.503,0.875-0.847,1.163-1.345c0.616-1.067,1.396-2.233,2.287-3.024"/>
		<path fill="none" stroke="#402217" stroke-width="2.2061" stroke-linecap="round" stroke-miterlimit="2.0766" d="M642.654,120.787
			c0.267-0.072,0.815-0.921,0.938-1.088c0.246-0.341,0.349-0.75,0.591-1.094c0.294-0.417,0.767-0.722,1.016-1.158
			c0.119-0.206,0.127-0.46,0.265-0.662c0.4-0.583,0.995-1.025,1.391-1.603c0.722-1.058,1.436-2.037,2.298-2.979
			c0.455-0.498,0.692-1.168,1.065-1.712c0.417-0.611,1.008-1.264,1.548-1.744"/>
		<path fill="none" stroke="#402217" stroke-width="2.2061" stroke-linecap="round" stroke-miterlimit="2.0766" d="M681.511,138.111
			c-0.023-0.416-0.294-0.779-0.426-1.174c-0.208-0.624-0.14-1.377-0.375-1.968c-0.21-0.527-0.529-1.022-0.735-1.541
			c-0.182-0.46-0.218-0.971-0.368-1.441c-0.754-2.338-1.72-4.568-2.241-6.968c-0.155-0.722-1.228-2.691-0.932-3.375"/>
		<path fill="none" stroke="#402217" stroke-width="2.2061" stroke-linecap="round" stroke-miterlimit="2.0766" d="M681.727,138.555
			c0.25,0.296,1.228-0.293,1.633-0.404c0.432-0.119,0.845,0.081,1.271,0.024c0.436-0.058,0.792-0.141,1.237-0.166"/>
		<path fill="none" stroke="#402217" stroke-width="2.2061" stroke-linecap="round" stroke-miterlimit="2.0766" d="M689.437,156.216
			c-0.466-0.553-0.252-1.423-0.36-2.137c-0.142-0.923-0.093-2.055-0.36-2.952c-0.385-1.306-0.5-2.526-0.72-3.866
			c-0.15-0.904-0.587-1.776-0.584-2.7c0-0.397,0.08-0.746,0.03-1.152c-0.233-1.926-0.722-3.893-0.83-5.778"/>
		<path fill="none" stroke="#402217" stroke-width="2.2061" stroke-linecap="round" stroke-miterlimit="2.0766" d="M685.532,156.946
			c-0.275,0.312,0.938-0.392,1.082-0.45c0.678-0.272,2.048-0.266,2.755-0.076"/>
		<path fill="none" stroke="#402217" stroke-width="2.2061" stroke-linecap="round" stroke-miterlimit="2.0766" d="M685.651,157.244
			c-0.144,0.747,0.404,1.541,0.371,2.298c-0.093,1.965-0.028,3.952-0.121,5.916c-0.083,1.761-0.515,3.476-0.462,5.243
			c0.042,1.425,0.286,2.778,0.413,4.196c0.133,1.491,0.042,3.037-0.053,4.511c-0.061,0.936,0.123,1.901,0.061,2.846
			c-0.042,0.658-0.256,1.31-0.307,1.966c-0.208,2.645,0.296,5.441,0.199,8.136c-0.042,1.16-0.1,2.335-0.127,3.485
			c-0.019,0.808-0.328,1.627-0.267,2.446c0.172,2.192,0.121,4.434,0.017,6.617c-0.078,1.701,0.053,3.408-0.1,5.111
			c-0.095,1.08-0.044,2.3-0.036,3.367c0.004,0.489,0.212,1.014,0.116,1.506"/>
		<path fill="none" stroke="#402217" stroke-width="2.2061" stroke-linecap="round" stroke-miterlimit="2.0766" d="M685.066,222.624
			c-0.019-0.472,0.015-1.036,0.057-1.512c0.032-0.375-0.085-0.839-0.11-1.22c-0.051-0.784,0.017-1.592-0.013-2.38
			c-0.03-0.76,0.224-1.514,0.254-2.264"/>
		<path fill="none" stroke="#402217" stroke-width="2.2061" stroke-linecap="round" stroke-miterlimit="2.0766" d="M684.952,223.016
			c0.099,0.028,0.512-0.055,0.561-0.059c0.466-0.042,0.949,0.034,1.419-0.032c0.066-0.008,0.548-0.059,0.565-0.076"/>
		<path fill="none" stroke="#402217" stroke-width="2.2061" stroke-linecap="round" stroke-miterlimit="2.0766" d="M687.737,228.007
			c0.282-1.061,0.051-2.058,0.032-3.092c-0.008-0.517,0.083-1.038,0.053-1.55"/>
		<path fill="none" stroke="#402217" stroke-width="2.2061" stroke-linecap="round" stroke-miterlimit="2.0766" d="M685.191,228.213
			c-0.021,0.074,0.635-0.049,0.843-0.025c0.568,0.068,1.069,0.197,1.631,0.006"/>
		<path fill="none" stroke="#402217" stroke-width="2.2061" stroke-linecap="round" stroke-miterlimit="2.0766" d="M684.975,242.518
			c-0.066-0.69,0.125-1.4,0.114-2.096c-0.025-1.484-0.288-2.944-0.313-4.43c-0.015-0.856,0.208-1.734,0.193-2.598
			c-0.025-1.493-0.349-3.31-0.011-4.769"/>
		<path fill="none" stroke="#402217" stroke-width="2.2061" stroke-linecap="round" stroke-miterlimit="2.0766" d="M685.064,242.613
			c0.464,0.106,0.936-0.157,1.415-0.157c0.284,0,1.131,0.161,1.319-0.066"/>
		<path fill="none" stroke="#402217" stroke-width="2.2061" stroke-linecap="round" stroke-miterlimit="2.0766" d="M687.584,247.964
			c-0.061-0.258,0.097-0.508,0.102-0.76c0.01-0.75-0.061-1.501-0.038-2.243c0.021-0.669,0.258-1.292,0.195-1.965"/>
		<path fill="none" stroke="#402217" stroke-width="2.2061" stroke-linecap="round" stroke-miterlimit="2.0766" d="M685.164,247.96
			c-0.176,0.214,2.029,0.167,2.353,0.136"/>
		<path fill="none" stroke="#402217" stroke-width="2.2061" stroke-linecap="round" stroke-miterlimit="2.0766" d="M685.066,261.717
			c-0.011,0.074-0.047-0.142-0.053-0.216c-0.044-0.635-0.051-0.773-0.076-1.23c-0.055-0.98-0.104-1.974-0.04-2.948
			c0.193-2.948-0.466-5.851-0.047-8.79"/>
		<path fill="none" stroke="#402217" stroke-width="2.2061" stroke-linecap="round" stroke-miterlimit="2.0766" d="M685.232,262.034
			c-0.038-0.004,0.51-0.11,0.741-0.186c0.549-0.184,0.991-0.152,1.565-0.072"/>
		<path fill="none" stroke="#402217" stroke-width="2.2061" stroke-linecap="round" stroke-miterlimit="2.0766" d="M687.625,267.337
			c-0.167-0.506,0.038-1.444,0.072-1.965c0.07-1.078,0.112-2.179,0.089-3.265"/>
		<path fill="none" stroke="#402217" stroke-width="2.2061" stroke-linecap="round" stroke-miterlimit="2.0766" d="M628.124,267.28
			c0.148-0.197,3.295-0.085,3.975-0.076c0.75,0.011,1.487-0.301,2.23-0.29c3.079,0.04,6.156-0.432,9.231-0.119
			c5.726,0.584,11.359,0.087,17.066-0.188c4.854-0.235,9.796,0.498,14.652,0.563c4.14,0.055,8.452-0.754,12.482-0.028"/>
		<path fill="none" stroke="#402217" stroke-width="2.2061" stroke-linecap="round" stroke-miterlimit="2.0766" d="M627.161,267.799
			c0,2.901-0.491,6.573,0,9.527c0.286,1.709,0.307,3.767,0.133,5.502c-0.28,2.812-0.133,5.737-0.133,8.589
			c0,1.529-0.188,3.181,0,4.697c0.311,2.48,0.061,5.019,0.269,7.513c0.669,8.026,0.671,16.154,0.671,24.156"/>
		<path fill="none" stroke="#402217" stroke-width="2.2061" stroke-linecap="round" stroke-miterlimit="2.0766" d="M628.152,327.987
			c-0.246,0,0.722,0.038,0.902,0.038c0.578,0,1.15-0.038,1.73-0.038c1.77,0,3.543-0.076,5.303-0.076"/>
		<path fill="none" stroke="#402217" stroke-width="2.2061" stroke-linecap="round" stroke-miterlimit="2.0766" d="M636.144,327.953
			c-0.212,0.023,0.004,0.917-0.019,1.19c-0.102,1.22-0.288,2.45-0.148,3.683c0.608,5.326-0.076,10.667-0.136,16.022
			c-0.028,2.52,0.18,5,0.237,7.511c0.055,2.433-0.123,4.905,0.008,7.331c0.076,1.379,0.205,2.785,0.165,4.163
			c-0.04,1.448-0.116,2.899-0.072,4.348c0.182,5.989,0.591,11.986,0.811,17.979c0.097,2.675-0.28,5.366-0.271,8.034
			c0.002,1.351-0.163,2.713-0.159,4.047c0.008,2.891,0.038,5.775-0.203,8.646c-0.078,0.94,0.288,2.759-0.006,3.562"/>
		<path fill="none" stroke="#402217" stroke-width="2.2061" stroke-linecap="round" stroke-miterlimit="2.0766" d="M636.718,398.544
			c0.127,0.781-0.104,1.648-0.091,2.414c0.017,0.949,0.22,1.895,0.267,2.84c0.097,1.997-0.142,4.055-0.375,6.014
			c-0.097,0.811,0.087,1.664,0.017,2.493c-0.15,1.751-0.606,3.589-0.574,5.375c0.032,1.753-0.078,3.49-0.309,5.237
			c-0.229,1.732-0.195,3.661-0.091,5.392c0.097,1.601-0.167,3.202-0.089,4.816c0.102,2.065-0.36,4.204-0.235,6.281
			c0.138,2.298-0.008,4.593,0.15,6.889c0.169,2.467,0.383,4.943,0.428,7.422c0.078,4.379-0.434,8.818-0.165,13.278
			c0.093,1.55-0.087,3.035,0.163,4.585"/>
		<path fill="none" stroke="#402217" stroke-width="2.2061" stroke-linecap="round" stroke-miterlimit="2.0766" d="M635.818,471.947
			c-1.152,0.339-2.27-0.097-3.405-0.197c-1.025-0.089-2.039,0.155-3.054,0.142c-2.823-0.034-5.62-0.091-8.481-0.282
			c-0.997-0.066-2.035,0.155-3.054,0.142c-4.913-0.059-9.777,0.303-14.659,0.402c-5.574,0.112-11.272-0.015-16.829-0.538
			c-2.764-0.26-5.758-0.335-8.507-0.148c-1.137,0.078-2.293-0.165-3.428-0.063c-2.41,0.216-4.968,0.764-7.401,0.601
			c-7.408-0.493-14.83-0.599-22.236-1.093c-0.938-0.064-1.861,0.332-2.81,0.322c-2.531-0.03-4.993,0.394-7.511,0.445
			c-4.841,0.097-9.652-0.411-14.468-0.665c-2.658-0.142-5.349,0.22-7.996,0.08c-5.644-0.299-11.404,0.33-16.973,0.263
			c-0.908-0.011-1.785-0.311-2.692-0.345c-1.942-0.068-3.848-0.044-5.766-0.068c-1.239-0.017-2.774-0.51-3.962-0.161"/>
		<path fill="none" stroke="#402217" stroke-width="2.2061" stroke-linecap="round" stroke-miterlimit="2.0766" d="M482.517,470.143
			c-0.08-1.734-0.322-3.714-0.305-5.449c0.008-0.97,0.383-2.329,0.64-3.238c0.517-1.819,0.146-4.081,0.404-5.989
			c0.205-1.523-0.555-3.077-0.267-4.606c0.123-0.661,0.559-1.351,0.582-2.054c0.036-1.165-0.398-2.353-0.388-3.53
			c0.023-2.19,0.019-4.303-0.184-6.525c-0.093-1.014,0.309-1.971,0.201-2.994c-0.108-1.033-0.326-2.137-0.593-3.126
			c-0.305-1.131,0.233-2.41-0.167-3.653c-0.352-1.095-1.334-2.084-1.387-3.259"/>
		<path fill="none" stroke="#402217" stroke-width="2.2061" stroke-linecap="round" stroke-miterlimit="2.0766" d="M481.102,425.549
			c-1.622,0.307-2.711-0.519-4.144-0.712c-0.464-0.064-0.93,0.155-1.343,0.174c-0.371,0.017-0.756-0.155-1.124,0.051
			c-0.525,0.292-1.235,3.717-1.518,3.729c-0.085,0.004-0.083-0.146-0.123-0.218c-0.301-0.538-1.194-1.082-1.751-1.328
			c-0.424-0.191-2.91-0.404-2.958-0.654c-0.036-0.197,0.5-0.565,0.587-0.758c0.237-0.538,0.246-1.175,0.485-1.713
			c0.169-0.381,0.512-0.597,0.572-1.04c0.053-0.394-1.139-0.663-1.457-1.059c-0.623-0.779-2.27-3.67-3.318-3.623"/>
		<path fill="none" stroke="#402217" stroke-width="2.2061" stroke-linecap="round" stroke-miterlimit="2.0766" d="M464.959,418.569
			c-0.299,0.44-0.75,0.332-1.16,0.504c-0.345,0.146-0.809,0.546-1.207,0.676c-1.148,0.368-1.031-1.588-1.398-2.247
			c-0.235-0.417-1.15-1.832-1.116-2.257c0.011-0.155,0.457-0.133,0.5-0.136c0.57-0.025,2.395-0.472,2.895-0.752"/>
		<path fill="none" stroke="#402217" stroke-width="2.2061" stroke-linecap="round" stroke-miterlimit="2.0766" d="M463.801,414.172
			c-0.044-1.004-0.339-2.181-0.201-3.2c0.222-1.645,0.794-3.373,0.33-5.085c-0.138-0.506-3.134-0.426-3.801-0.614
			c-0.845-0.239-1.313-3.524-1.097-4.286c0.203-0.716,4.553-0.593,4.752-0.781c0.356-0.335-0.352-1.548-0.371-1.952
			c-0.04-0.87,0.248-1.734,0.275-2.605c0.03-0.919-0.252-1.887-0.127-2.808c0.076-0.568,0.487-1.709,0.178-2.262
			c-0.133-0.237-4.043-0.688-4.231-1.385c-0.085-0.316,0.184-0.796,0.231-1.135c0.123-0.917-0.021-1.946,0.042-2.761
			c0.006-0.095,0.076-0.188,0.159-0.233c0.421-0.235,3.183,0.51,3.371-0.155c0.03-0.104-0.343-0.82-0.381-0.94
			c-0.178-0.555-0.354-1.698-0.273-2.296c0.144-1.061,0.417-2.128,0.703-3.13c0.337-1.19-0.127-2.745-0.18-3.935"/>
		<path fill="none" stroke="#402217" stroke-width="2.2061" stroke-linecap="round" stroke-miterlimit="2.0766" d="M462.173,374.153
			c-0.288-0.169,0.642-0.252,0.974-0.229c0.229,0.015-0.419,0.188-0.637,0.252c-0.523,0.152-1.641,0.275-1.311,0.205
			C461.925,374.229,462.602,374.407,462.173,374.153z"/>
		<path fill="none" stroke="#402217" stroke-width="2.2061" stroke-linecap="round" stroke-miterlimit="2.0766" d="M459.661,374.735
			c0.114-0.538-0.407-3.822-0.385-4.566c0.03-1.031,0.402-2.325,0.608-3.278c0.165-0.777-0.271-1.876-0.299-2.696
			c-0.036-1.046,0.417-2.132,0.493-3.206c0.26-3.753-0.417-7.685-0.362-11.478c0.019-1.44,0.595-2.831,0.432-4.29
			c-0.119-1.076-0.519-2.118-0.476-3.221c0.076-2.094,0.011-4.212,0.087-6.313c0.034-0.881,0.248-1.804,0.188-2.687
			c-0.116-1.734-0.25-3.547-0.224-5.309c0.013-1.006,0.595-1.887,0.525-2.908c-0.091-1.353-0.373-2.781-0.277-4.153
			c0.305-4.392,0.555-8.661,0.07-13.039c-0.121-1.095,0.402-2.3,0.534-3.395c0.146-1.194-0.227-2.603-0.358-3.778
			c-0.133-1.209,0.106-2.399,0.087-3.587c-0.047-3.066-0.123-6.126-0.169-9.193c-0.036-2.353,0.398-4.64,0.322-6.946
			c-0.023-0.671,0.019-4.684-0.119-4.898"/>
		<path fill="none" stroke="#402217" stroke-width="2.2061" stroke-linecap="round" stroke-miterlimit="2.0766" d="M460.701,275.253
			c-0.568,0.087-1.036,0.642-1.681,0.623c-1.76-0.049-3.462,0.263-5.212,0.432c-0.997,0.095-1.997-0.218-3.001-0.144
			c-1.112,0.085-2.183,0.064-3.284,0.057c-0.295,0-1.939,0.231-1.404,0.216"/>
		<path fill="none" stroke="#402217" stroke-width="2.2061" stroke-linecap="round" stroke-miterlimit="2.0766" d="M445.849,276.555
			c0.092,0.305,0.21,1.468,0.018,1.828"/>
		<path fill="none" stroke="#402217" stroke-width="2.2061" stroke-linecap="round" stroke-miterlimit="2.0766" d="M445.745,278.609
			c-0.363-0.195-0.823-0.057-1.235-0.047c-1.407,0.038-2.882,0.453-4.285,0.341c-0.657-0.053-1.466-0.299-2.121-0.199
			c-0.361,0.055-0.677,0.14-1.055,0.11c-1.119-0.089-2.12-0.318-3.275-0.231c-1.09,0.08-2.209-0.631-3.3-0.568
			c-1.019,0.057-1.973,0.184-3.042,0.097c-0.629-0.049-1.279-0.252-1.912-0.203c-0.424,0.032-0.786,0.301-1.21,0.29
			c-0.473-0.015-0.814-0.388-1.307-0.349c-0.303,0.021-0.494,0.205-0.813,0.15"/>
		<path fill="none" stroke="#402217" stroke-width="2.2061" stroke-linecap="round" stroke-miterlimit="2.0766" d="M422.034,254.066
			c-0.05-0.328,0,0.663-0.005,0.993c-0.007,0.544-0.198,1.042-0.229,1.576c-0.044,0.743,0.269,1.573,0.143,2.304
			c-0.173,1.006-0.08,2.02-0.109,3.047c-0.022,0.767,0.073,1.523,0.062,2.291c-0.009,0.654-0.248,1.292-0.252,1.944
			c-0.003,0.593,0.195,1.177,0.193,1.775c-0.003,0.557-0.246,1.082-0.243,1.656c0.008,1.756,0.104,3.492-0.194,5.231
			c-0.193,1.124,0.403,2.145-0.184,3.242"/>
		<path fill="none" stroke="#402217" stroke-width="2.2061" stroke-linecap="round" stroke-miterlimit="2.0766" d="M424.157,253.767
			c0.223-0.034-0.573,0.023-0.766,0.116c-0.41,0.199-0.896,0.163-1.324,0.229"/>
		<path fill="none" stroke="#402217" stroke-width="2.2061" stroke-linecap="round" stroke-miterlimit="2.0766" d="M424.551,228.806
			c0.298-0.555,0.156,2.086,0.176,2.351c0.124,1.654-0.217,3.405-0.039,5.049c0.051,0.47,0.282,0.947,0.295,1.419
			c0.014,0.517-0.128,0.991-0.135,1.51c-0.025,1.842,0.158,3.664-0.155,5.485c-0.104,0.606,0.208,1.203,0.145,1.806
			c-0.109,1.05-0.415,1.885-0.337,2.927c0.076,1.016-0.759,3.028-0.134,3.913"/>
		<path fill="none" stroke="#402217" stroke-width="2.2061" stroke-linecap="round" stroke-miterlimit="2.0766" d="M424.701,228.418
			c0.073-0.053-0.695,0.051-1.008,0.074c-0.498,0.038-1.432-0.191-1.84,0.1"/>
		<path fill="none" stroke="#402217" stroke-width="2.2061" stroke-linecap="round" stroke-miterlimit="2.0766" d="M421.843,203.977
			c0.156,1.739-0.345,3.328-0.194,5.016c0.183,2.039-0.168,4.036-0.098,6.08c0.08,2.34-0.06,4.799-0.343,7.115
			c-0.093,0.758,0.021,1.476,0.017,2.236c-0.004,0.695-0.209,1.338-0.185,2.041c0.018,0.534,0.247,1.4-0.046,1.874"/>
		<path fill="none" stroke="#402217" stroke-width="2.2061" stroke-linecap="round" stroke-miterlimit="2.0766" d="M446.194,203.951
			c0.098,0.177,0.1,2.368-0.069,2.614"/>
		<path fill="none" stroke="#402217" stroke-width="2.2061" stroke-linecap="round" stroke-miterlimit="2.0766" d="M445.869,203.603
			c0.117-0.407-0.489,0.085-0.589,0.129c-0.261,0.112-0.75,0.001-1.01-0.034c-1.998-0.276-3.945,0.914-6.02,0.697
			c-2.709-0.284-5.399-0.453-8.111-0.454c-0.923-0.001-1.849-0.231-2.776-0.243c-0.829-0.011-1.595,0.186-2.39,0.335
			c-0.455,0.085-1.977-0.092-2.171,0.015"/>
		<path fill="none" stroke="#402217" stroke-width="2.2061" stroke-linecap="round" stroke-miterlimit="2.0766" d="M464.335,206.268
			c0.112-0.136-1.389,0.118-1.713,0.132c-1.336,0.06-2.626,0.184-3.952,0.277c-1.703,0.119-3.441-0.181-5.148-0.165
			c-0.93,0.009-1.885,0.252-2.816,0.23c-0.493-0.012-0.985-0.169-1.484-0.118c-0.597,0.06-1.563,0.296-2.154,0.163"/>
		<path fill="none" stroke="#402217" stroke-width="2.2061" stroke-linecap="round" stroke-miterlimit="2.0766" d="M464.388,166.663
			c0.136,0.697-0.042,1.365-0.076,2.032c-0.089,1.655-0.076,3.374,0.036,5.037c0.25,3.707,0.642,7.52,0.57,11.255
			c-0.08,4.08-0.36,8.143-0.252,12.221c0.015,0.617-0.186,1.31-0.231,1.928c-0.091,1.209-0.04,2.392-0.047,3.573
			c-0.008,1.16-0.212,2.033,0.019,3.224"/>
		<path fill="none" stroke="#402217" stroke-width="2.2061" stroke-linecap="round" stroke-miterlimit="2.0766" d="M484.279,150.296
			c0.512-0.1-0.987,0.404-1.247,0.511c-0.523,0.215-0.724-0.049-1.177-0.175c-0.419-0.117-1.089,0.01-1.527,0.095"/>
		<path fill="none" stroke="#402217" stroke-width="2.2061" stroke-linecap="round" stroke-miterlimit="2.0766" d="M479.95,150.866
			c0.22-0.791-0.487-1.349-0.792-1.998c-0.457-0.98-1.036-1.038-1.855-1.59c-0.849-0.574-1.442-1.339-2.372-1.826
			c-1.163-0.61-2.766-0.42-4.021-0.632c-2.334-0.393-3.736,0.655-5.669,1.638c-1.542,0.784-2.785,1.818-3.966,3.124
			c-0.26,0.288-0.343,0.828-0.512,1.175c-0.527,1.088-0.775,2.133-1.184,3.256c-0.186,0.511-0.51,0.95-0.656,1.472
			c-0.125,0.448,0.021,1.019,0.019,1.476c-0.015,2.534,0.246,4.29,2.022,6.265c1.15,1.279,1.391,2.35,3.246,2.867"/>
		<path fill="none" stroke="#402217" stroke-width="2.2061" stroke-linecap="round" stroke-miterlimit="2.0766" d="M494.349,88.781
			c-0.025-0.064-0.006-0.174-0.072-0.191c-0.453-0.121-1.042,0.001-1.493-0.204c-0.561-0.255-1.29-0.642-1.9-0.707"/>
		<path fill="none" stroke="#402217" stroke-width="2.2061" stroke-linecap="round" stroke-miterlimit="2.0766" d="M490.429,87.631
			c-0.142,1.338-1.055,2.148-1.268,3.309c-0.199,1.074,0.053,2.285-0.267,3.369c-0.191,0.65-0.659,1.175-0.837,1.839
			c-0.343,1.274-0.083,2.603-0.506,3.895c-0.356,1.086-1.379,1.941-1.698,3.034c-0.233,0.791-0.273,1.706-0.36,2.533"/>
		<path fill="none" stroke="#402217" stroke-width="2.2061" stroke-linecap="round" stroke-miterlimit="2.0766" d="M488.718,106.365
			c0.051-0.056,0.224-0.136,0.155-0.167c-0.676-0.307-2.804-0.298-3.632-0.385"/>
		<path fill="none" stroke="#402217" stroke-width="2.2061" stroke-linecap="round" stroke-miterlimit="2.0766" d="M489.027,106.903
			c0.481,0.446-0.222,1.939-0.396,2.437c-0.714,2.04-0.4,4.631-0.627,6.774c-0.127,1.185-0.339,2.319-0.553,3.476
			c-0.243,1.319,0.125,2.725-0.015,4.039c-0.239,2.243-0.548,4.509-0.856,6.75c-0.142,1.047,0.025,2.122-0.015,3.166
			c-0.049,1.372-0.263,2.954-0.457,4.313c-0.123,0.865-0.548,1.61-0.718,2.449c-0.449,2.201-0.083,4.53-0.436,6.703
			c-0.133,0.824,0.059,1.947-0.553,2.604"/>
		<path fill="none" stroke="#402217" stroke-width="2.2061" stroke-linecap="round" stroke-miterlimit="2.0766" d="M620.477,226.807
			c1.895,0.447,3.498-0.43,5.341-0.392c0.906,0.019,1.798,0.244,2.668,0.288c0.752,0.04,1.592-0.231,2.353-0.299
			c1.112-0.102,2.342,0.072,3.448,0.129c0.845,0.044,1.692-0.358,2.526-0.313c1.415,0.072,5.123,0.642,6.04-0.455"/>
		<path fill="none" stroke="#402217" stroke-width="2.2061" stroke-linecap="round" stroke-miterlimit="2.0766" d="M620.143,227.012
			c-0.218,0.557-0.083,1.105-0.112,1.686c-0.078,1.512,0.104,2.785,0.028,4.227c-0.023,0.451-0.271,0.902-0.144,1.334
			c0.032,0.11,0.665,0.612,0.762,0.635c0.688,0.163,2.537-0.364,3.496-0.313c0.724,0.038,4.828,0.22,5.099-0.106"/>
		<path fill="none" stroke="#402217" stroke-width="2.2061" stroke-linecap="round" stroke-miterlimit="2.0766" d="M629.463,234.634
			c-0.152,0.648,0.555,1.605,0.474,2.336c-0.044,0.426-0.309,0.54-0.081,1.065"/>
		<path fill="none" stroke="#402217" stroke-width="2.2061" stroke-linecap="round" stroke-miterlimit="2.0766" d="M629.715,238.399
			c-0.561,0.671-1.995-0.129-2.592,0.587c-0.227,0.271,0.529,1.074,0.65,1.351c0.508,1.163,0.538,2.552,0.252,3.765
			c-0.563,2.378,0.345,3.488,0.343,5.786c-0.002,1.525-0.085,3.054-0.116,4.591c-0.021,1.01,0.383,2.054,0.362,3.052
			c-0.03,1.468-0.616,2.931-0.481,4.449"/>
		<path fill="none" stroke="#402217" stroke-width="2.2061" stroke-linecap="round" stroke-miterlimit="2.0766" d="M650.584,136.342
			c-0.557,1.421-0.059,3.13-0.29,4.608c-0.186,1.196-0.733,2.624-0.623,3.845c0.061,0.683,0.377,1.376,0.362,2.082
			c-0.034,1.597-0.246,3.036-0.464,4.624c-0.216,1.555,0.305,3.164,0.074,4.751c-0.169,1.159-0.169,2.432-0.385,3.559
			c-0.318,1.666-1.156,3.494-1.118,5.211c0.015,0.633,0.182,1.181,0.078,1.843c-0.532,3.397-1.292,6.753-1.552,10.184
			c-0.049,0.663,0.144,1.359,0.093,2.018c-0.102,1.361-0.635,2.678-0.781,4.035c-0.121,1.105,0.356,2.207,0.299,3.321
			c-0.07,1.321-0.43,2.608-0.529,3.924c-0.091,1.201,0.191,2.394,0.059,3.607c-0.129,1.195-0.591,2.29-0.654,3.495
			c-0.159,3.041,0.011,6.38-0.565,9.39c-0.163,0.854-0.534,1.652-0.654,2.527c-0.165,1.196-0.112,2.421-0.114,3.621
			c-0.002,1.086-0.349,2.236-0.496,3.306c-0.123,0.892-0.017,1.703-0.034,2.558c-0.023,1.105-0.477,2.221-0.671,3.321
			c-0.252,1.408,0.063,2.628-0.258,3.988"/>
		<path fill="none" stroke="#402217" stroke-width="2.2061" stroke-linecap="round" stroke-miterlimit="2.0766" d="M658.735,137.812
			c0.991-0.432,0.241,2.602,0.108,3.162c-0.453,1.922-0.019,3.741-0.021,5.641c-0.002,1.523-0.407,3.005-0.385,4.528
			c0.013,1.112,0.358,2.19,0.299,3.321c-0.066,1.237-0.604,2.376-0.735,3.591c-0.142,1.309,0.191,2.632,0.091,3.957
			c-0.099,1.315-0.5,2.602-0.529,3.924c-0.032,1.514-0.637,2.895-0.75,4.385c-0.097,1.294,0.172,2.6-0.004,3.877
			c-0.188,1.363-0.754,2.624-0.784,4.035c-0.017,0.787,0.142,1.581,0.125,2.368c-0.019,0.9-0.396,1.791-0.464,2.685
			c-0.246,3.269-0.544,6.537-0.614,9.835c-0.034,1.676-1.103,3.4-0.957,5.02c0.089,1.002,0.597,2.115,0.457,3.131
			c-0.172,1.239-0.595,2.456-0.813,3.686c-0.129,0.724,0.108,1.46,0.108,2.193c-0.002,1.23-0.373,2.435-0.464,3.653
			c-0.068,0.885,0.144,1.828,0.155,2.719c0.019,1.351-0.457,2.732-0.337,4.083c0.123,1.364,0.339,2.67,0.011,4.051
			c-0.286,1.213-1.078,4.049-0.593,5.165"/>
		<path fill="none" stroke="#402217" stroke-width="2.2061" stroke-linecap="round" stroke-miterlimit="2.0766" d="M652.052,227.139
			c0.095-0.042,2.753,0.309,3.208,0.417"/>
		<path fill="none" stroke="#402217" stroke-width="2.2061" stroke-linecap="round" stroke-miterlimit="2.0766" d="M654.815,228.478
			c0.411,0.942,0.038,2.056,0.013,3.083c-0.072,2.861,0.18,5.042-0.263,7.865c-0.195,1.243,0.506,2.425,0.504,3.655
			c-0.002,1.537-0.5,3.092-0.466,4.623c0.023,1.006,0.606,1.94,0.618,2.941c0.015,1.196-0.148,2.357-0.212,3.543
			c-0.076,1.491,0.549,2.829,0.472,4.276c-0.068,1.33-0.47,2.59-0.352,3.907"/>
		<path fill="none" stroke="#402217" stroke-width="2.2061" stroke-linecap="round" stroke-miterlimit="2.0766" d="M628.594,262.202
			c-0.091-0.021-0.271-0.064-0.271-0.064s0.663,0.25,1.002,0.352c0.671,0.201,1.364,0.22,2.048,0.256
			c1.061,0.055,2.071-0.388,3.115-0.633c1.063-0.25,2.052,0.176,3.1,0.163c1.969-0.025,3.858-0.718,5.847-0.614
			c1.283,0.066,2.514,0.246,3.814,0.273c2.522,0.053,4.695-0.544,7.23,0.055"/>
		<path fill="none" stroke="#402217" stroke-width="2.2061" stroke-linecap="round" stroke-miterlimit="2.0766" d="M582.696,332.65
			c0.305,1.36,0.004,2.738,0.055,4.106c0.059,1.605-0.114,3.172-0.108,4.775c0.004,1.222,0.284,2.537,0.14,3.77
			c-0.14,1.182-0.409,2.456-0.364,3.647c0.102,2.78,0.701,5.36,0.489,8.123c-0.114,1.501,0.682,3.011,0.309,4.523"/>
		<path fill="none" stroke="#402217" stroke-width="2.2061" stroke-linecap="round" stroke-miterlimit="2.0766" d="M583.071,332.566
			c0.515-0.604,2.16,0.265,2.975,0.199c2.67-0.214,5.855-1.095,8.543-0.741c0.83,0.108,1.726,0.415,2.558,0.451
			c1.936,0.085,3.894-0.476,5.819-0.523c1.639-0.04,3.331-0.011,4.945,0.15c0.616,0.061,1.245-0.188,1.842-0.258
			c1.813-0.214,3.854,0.011,5.654,0.148c1.169,0.089,2.236-0.4,3.35-0.599c0.883-0.157,1.777,0.03,2.639,0.116
			c0.779,0.078,1.461-0.316,2.219-0.343c1.146-0.042,2.266-0.104,3.393-0.053c0.902,0.038,1.781,0.62,2.683,0.661
			c0.911,0.04,2.033-0.144,2.931-0.345"/>
		<path fill="none" stroke="#402217" stroke-width="2.2061" stroke-linecap="round" stroke-miterlimit="2.0766" d="M630.992,332.271
			c-1.061,1.247-0.246,3.265-0.318,4.902c-0.028,0.642-0.07,1.285-0.119,1.927c-0.174,2.281-0.464,4.777-0.142,7.079
			c0.11,0.794,0.468,1.429,0.51,2.26c0.07,1.404-0.222,2.827-0.152,4.231c0.195,3.911,0.299,7.825,0.125,11.772
			c-0.241,5.464,0.04,10.705,0.477,16.124c0.095,1.201-0.144,2.488-0.197,3.687c-0.224,5.099-0.256,10.341-0.239,15.417
			c0.013,3.628,0.076,7.378,0.5,10.974c0.186,1.567-0.316,3.17-0.275,4.735c0.136,5.506-0.038,10.868-0.277,16.296
			c-0.14,3.162,0.462,6.51,0.83,9.631c0.203,1.728-0.311,3.683-0.443,5.404c-0.093,1.218,0.377,2.634,0.474,3.854
			c0.307,3.803-0.477,7.566-0.462,11.268c0.004,1.529,0.43,3.31,0.057,4.818"/>
		<path fill="none" stroke="#402217" stroke-width="2.2061" stroke-linecap="round" stroke-miterlimit="2.0766" d="M485.145,423.103
			c1.315-1.222,2.461-2.596,3.825-3.721c0.271-0.224,0.472-0.54,0.764-0.743"/>
		<path fill="none" stroke="#402217" stroke-width="2.2061" stroke-linecap="round" stroke-miterlimit="2.0766" d="M490.105,418.124
			c0.146,0.21,0.54,0.208,0.773,0.335c0.722,0.394,1.768,1.16,2.539,1.3"/>
		<path fill="none" stroke="#402217" stroke-width="2.2061" stroke-linecap="round" stroke-miterlimit="2.0766" d="M495.609,416.186
			c-0.22,0.155-0.273,0.61-0.407,0.851c-0.453,0.83-1.057,1.838-1.296,2.751"/>
		<path fill="none" stroke="#402217" stroke-width="2.2061" stroke-linecap="round" stroke-miterlimit="2.0766" d="M491.915,414.166
			c-0.091-0.051,0.267,0.102,0.345,0.129c0.244,0.085,0.487,0.21,0.726,0.307c0.809,0.332,1.389,0.883,2.291,1.046"/>
		<path fill="none" stroke="#402217" stroke-width="2.2061" stroke-linecap="round" stroke-miterlimit="2.0766" d="M491.75,405.367
			c-0.051-0.028,0.008,0.544-0.004,0.716c-0.028,0.415-0.036,0.805-0.008,1.216c0.038,0.608-0.044,1.279-0.106,1.88
			c-0.064,0.616,0.019,1.262-0.047,1.885c-0.021,0.201-0.165,2.363,0.023,2.19"/>
		<path fill="none" stroke="#402217" stroke-width="2.2061" stroke-linecap="round" stroke-miterlimit="2.0766" d="M491.917,405.28
			c0.548-0.381,0.767-0.076,1.254-0.059c0.764,0.03,1.389-0.021,2.128-0.235"/>
		<path fill="none" stroke="#402217" stroke-width="2.2061" stroke-linecap="round" stroke-miterlimit="2.0766" d="M495.805,401.117
			c-0.055,0.038,0.095,0.947,0.1,1.129c0.017,0.942,0.108,1.955-0.061,2.889"/>
		<path fill="none" stroke="#402217" stroke-width="2.2061" stroke-linecap="round" stroke-miterlimit="2.0766" d="M491.814,400.84
			c-0.051,0.036,0.33-0.015,0.455-0.017c0.282-0.006,0.563-0.025,0.845-0.015c0.487,0.017,2.09,0.03,2.442-0.214"/>
		<path fill="none" stroke="#402217" stroke-width="2.2061" stroke-linecap="round" stroke-miterlimit="2.0766" d="M491.78,389.618
			c-0.129,0.294,0.066,0.64,0.104,0.959c0.066,0.54,0.208,1.163,0.172,1.707c-0.059,0.868,0.055,1.679,0.04,2.535
			c-0.017,1.129-0.165,2.192-0.106,3.318c0.038,0.692,0.208,1.385,0.244,2.065"/>
		<path fill="none" stroke="#402217" stroke-width="2.2061" stroke-linecap="round" stroke-miterlimit="2.0766" d="M487.631,389.542
			c-0.023,0.019,0.788-0.017,1.046-0.002c0.633,0.04,1.345-0.017,1.982-0.051c0.152-0.008,0.44-0.102,0.574-0.044"/>
		<path fill="none" stroke="#402217" stroke-width="2.2061" stroke-linecap="round" stroke-miterlimit="2.0766" d="M482.129,420.108
			c0.906-0.582,1.442-1.491,2.204-2.209c0.817-0.771,1.772-1.506,2.518-2.334"/>
		<path fill="none" stroke="#402217" stroke-width="2.2061" stroke-linecap="round" stroke-miterlimit="2.0766" d="M487.17,389.701
			c-0.169,0.142,0.053,0.968,0.051,1.23c-0.006,1.408-0.006,2.812-0.015,4.24c-0.015,2.427-0.119,4.841,0.008,7.257
			c0.049,0.917-0.104,1.838-0.055,2.753c0.083,1.535,0.237,3.09,0.205,4.629c-0.025,1.273,0.076,2.552-0.093,3.816
			c-0.057,0.428-0.4,1.211-0.076,1.599"/>
		<path fill="none" stroke="#402217" stroke-width="2.2061" stroke-linecap="round" stroke-miterlimit="2.0766" d="M473.697,420.428
			c1.637,0.498,3.507,0.144,5.173,0.332c0.595,0.066,1.921,0.167,2.486-0.004"/>
		<path fill="none" stroke="#402217" stroke-width="2.2061" stroke-linecap="round" stroke-miterlimit="2.0766" d="M472.954,420.335
			c0-0.856-0.989-1.368-1.487-1.938c-0.284-0.324-0.451-0.743-0.72-1.08c-0.18-0.224-0.472-0.383-0.678-0.587
			c-0.483-0.483-0.824-1.05-1.307-1.531"/>
		<path fill="none" stroke="#402217" stroke-width="2.2061" stroke-linecap="round" stroke-miterlimit="2.0766" d="M468.583,362.442
			c0,3.399-0.208,6.711-0.449,10.093c-0.269,3.744,0.159,7.524-0.18,11.264c-0.277,3.041,0.127,6.215,0.36,9.235
			c0.18,2.353-0.047,4.763-0.047,7.118c0,2.016,0.136,4.038,0.136,6.038c0,2.889-0.136,5.805-0.136,8.651"/>
		<path fill="none" stroke="#402217" stroke-width="2.2061" stroke-linecap="round" stroke-miterlimit="2.0766" d="M468.814,362.162
			c0.256,0.265,2.844,0.017,3.382,0.051c3.164,0.201,6.304-0.008,9.434,0.053"/>
		<path fill="none" stroke="#402217" stroke-width="2.2061" stroke-linecap="round" stroke-miterlimit="2.0766" d="M482.221,370.027
			c-0.002,0.1-0.1,0.265-0.006,0.296c0.021,0.008,0.116-0.544,0.116-0.608c0.015-0.697,0.028-1.398,0.042-2.086
			c0.036-1.819-0.368-3.558-0.193-5.368"/>
		<path fill="none" stroke="#402217" stroke-width="2.2061" stroke-linecap="round" stroke-miterlimit="2.0766" d="M482.341,370.669
			c1.631-0.199,3.291,0.127,4.875-0.068"/>
		<path fill="none" stroke="#402217" stroke-width="2.2061" stroke-linecap="round" stroke-miterlimit="2.0766" d="M487.784,375.904
			c-0.43,0.411-0.11-1.554-0.102-1.686c0.08-1.26-0.011-2.444,0.013-3.695"/>
		<path fill="none" stroke="#402217" stroke-width="2.2061" stroke-linecap="round" stroke-miterlimit="2.0766" d="M488.192,376.3
			c0.405,0.419,2.171,0.072,2.698,0.008c2.257-0.277,4.487,0.021,6.741-0.256"/>
		<path fill="none" stroke="#402217" stroke-width="2.2061" stroke-linecap="round" stroke-miterlimit="2.0766" d="M497.955,376.065
			c0.246-0.504-0.186-2.45-0.167-3.225c0.044-1.707,0.002-3.42,0.044-5.116c0.015-0.587,0.252-1.169,0.212-1.758
			c-0.021-0.332-0.195-0.661-0.218-1.006c-0.051-0.781,0.102-1.582-0.155-2.323"/>
		<path fill="none" stroke="#402217" stroke-width="2.2061" stroke-linecap="round" stroke-miterlimit="2.0766" d="M582.488,362.531
			c-1.616,0.373-3.217-0.07-4.841,0.097c-3.062,0.316-6.26,0.222-9.364,0.201c-7.452-0.049-14.872-0.044-22.316-0.178
			c-1.756-0.032-3.484-0.445-5.218-0.521c-3.085-0.136-6.209,0.123-9.307,0.11c-2.06-0.008-4.117-0.239-6.169-0.222
			c-3.246,0.027-6.497,0.193-9.737,0.288c-1.671,0.051-3.363-0.14-5.04-0.089c-2.404,0.07-4.722,0.169-7.12,0.074
			c-1.876-0.072-3.759,0.218-5.538-0.21"/>
		<path fill="none" stroke="#402217" stroke-width="2.2061" stroke-linecap="round" stroke-miterlimit="2.0766" d="M582.31,362.702
			c0.068,1.52,0.133,2.956,0.199,4.456c0.036,0.798-0.284,1.584-0.297,2.38c-0.021,1.567,0.28,3.249,0.352,4.852"/>
		<path fill="none" stroke="#402217" stroke-width="2.2061" stroke-linecap="round" stroke-miterlimit="2.0766" d="M580.165,362.62
			c0.415-0.343,1.216,0.305,1.711,0.324c0.197,0.008,0.86-0.419,1.002-0.536"/>
		<path fill="none" stroke="#402217" stroke-width="2.2061" stroke-linecap="round" stroke-miterlimit="2.0766" d="M484.961,423.365
			c0.047,0.409,1.216,2.806,1.527,3.475"/>
		<path fill="none" stroke="#402217" stroke-width="2.2061" stroke-linecap="round" stroke-miterlimit="2.0766" d="M486.428,427.635
			c-0.455,0.43,0.144,2.099,0.163,2.742c0.076,2.594,0.049,5.171,0.188,7.763c0.08,1.504-0.246,2.975-0.235,4.462
			c0.006,0.786,0.409,1.571,0.415,2.37c0.038,4.871-0.017,9.735,0.127,14.62c0.068,2.289-0.462,4.638-0.203,6.923"/>
		<path fill="none" stroke="#402217" stroke-width="2.2061" stroke-linecap="round" stroke-miterlimit="2.0766" d="M486.884,466.822
			c0.102-0.271,0.595-0.258,0.858-0.248c0.781,0.034,2.207-0.133,2.916,0.091c0.536,0.172,0.968-0.025,1.54-0.03
			c1.004-0.006,1.991-0.093,2.986-0.095c1.268-0.002,2.543,0.068,3.795,0.066c0.656-0.002,1.305-0.288,1.957-0.233
			c0.557,0.049,0.968,0.106,1.537,0.034c0.735-0.095,1.285-0.011,2.008,0.021c0.498,0.019,0.957-0.193,1.453-0.191
			c0.396,0,0.792,0.159,1.186,0.174c0.512,0.021,0.997-0.146,1.512-0.125c0.629,0.028,1.241,0.155,1.88,0.078
			c2.927-0.347,6.137-0.51,9.051-0.248c0.496,0.045,1.017-0.127,1.512-0.125c1.406,0.002,2.823,0.277,4.227,0.269
			c0.481-0.002,0.936-0.157,1.419-0.159c0.432-0.002,0.817,0.199,1.249,0.178c0.502-0.025,1.076-0.191,1.573-0.123
			c0.4,0.053,0.771,0.284,1.182,0.301c1.351,0.055,2.704-0.091,4.053-0.114c0.404-0.006,0.777,0.186,1.186,0.176
			c0.614-0.015,1.247-0.197,1.859-0.142c0.316,0.027,0.587,0.212,0.9,0.256c0.597,0.087,1.211-0.142,1.821-0.049
			c0.417,0.064,0.822,0.258,1.243,0.303c0.426,0.047,0.836-0.152,1.262-0.136c0.468,0.021,0.934,0.193,1.406,0.155
			c0.489-0.042,0.991-0.241,1.484-0.222c0.258,0.011,0.527,0.159,0.779,0.127c0.54-0.066,1.086-0.205,1.641-0.182
			c0.496,0.021,0.976,0.197,1.465,0.218c0.853,0.036,1.561-0.383,2.421-0.055"/>
		<path fill="none" stroke="#402217" stroke-width="2.2061" stroke-linecap="round" stroke-miterlimit="2.0766" d="M551.318,466.596
			c0.411-0.313,1.101,0.104,1.561,0.125c0.841,0.036,1.72-0.203,2.554-0.091c0.326,0.044,0.631,0.256,0.97,0.265
			c0.724,0.017,1.374-0.155,2.086-0.199c0.739-0.045,1.461,0.199,2.211,0.169c1.976-0.076,3.975-0.034,5.93-0.112
			c0.54-0.021,1.065-0.197,1.607-0.218c0.824-0.032,1.643,0.305,2.469,0.205c0.515-0.064,1.04-0.305,1.569-0.269
			c1.525,0.106,3.132,0.25,4.667,0.155c2.143-0.133,4.28-0.114,6.408-0.091c0.811,0.008,1.675-0.299,2.478-0.189
			c0.544,0.074,1.063,0.269,1.624,0.309c0.589,0.04,1.216-0.142,1.804-0.061c0.46,0.061,0.887,0.239,1.364,0.273
			c0.747,0.051,1.47-0.169,2.209-0.138c1.036,0.047,2.067-0.042,3.107,0.03c0.449,0.03,0.885,0.167,1.338,0.138
			c0.563-0.034,1.129-0.214,1.694-0.208c0.591,0.006,1.171,0.301,1.758,0.284c0.633-0.019,1.277-0.25,1.912-0.22
			c0.546,0.023,1.082,0.275,1.624,0.307c0.646,0.038,1.326-0.152,1.989-0.123c2.649,0.119,5.307,0.222,7.969,0.341
			c0.544,0.023,1.061-0.116,1.595-0.133c0.9-0.027,1.917,0.476,2.814,0.252c0.502-0.125,1.063-0.352,1.582-0.354
			c0.265-0.002,0.561,0.195,0.847,0.203c0.779,0.019,1.559-0.072,2.334-0.076c0.815-0.006,1.673,0.366,2.531,0.388
			c1.008,0.025,2.06-0.157,3.068-0.019c0.424,0.057,0.832,0.265,1.279,0.26c0.364-0.002,0.773-0.11,1.131,0.068"/>
		
		
		
		
		
		
		
		
		
		
		
		
		
	</g>
	<rect x="586.465" y="408.225" fill="none" width="34.579" height="40.278"/>
</g>
<style>
#g-One-cloisters-map-Artboard_1-interactions-img rect, #g-One-cloisters-map-Artboard_1-interactions-img circle, #g-One-cloisters-map-Artboard_1-interactions-img path, #g-One-cloisters-map-Artboard_1-interactions-img line, #g-One-cloisters-map-Artboard_1-interactions-img polyline, #g-One-cloisters-map-Artboard_1-interactions-img polygon { vector-effect: non-scaling-stroke; }
</style>
</svg>

